  0
SECTION
  2
HEADER
  9
$ACADVER
  1
AC1024
  9
$ACADMAINTVER
 70
     6
  9
$DWGCODEPAGE
  3
ANSI_1252
  9
$INSBASE
 10
0.0
 20
0.0
 30
0.0
  9
$EXTMIN
 10
1.000000000000000E+20
 20
1.000000000000000E+20
 30
1.000000000000000E+20
  9
$EXTMAX
 10
-1.000000000000000E+20
 20
-1.000000000000000E+20
 30
-1.000000000000000E+20
  9
$LIMMIN
 10
0.0
 20
0.0
  9
$LIMMAX
 10
12.0
 20
9.0
  9
$ORTHOMODE
 70
     0
  9
$REGENMODE
 70
     1
  9
$FILLMODE
 70
     1
  9
$QTEXTMODE
 70
     0
  9
$MIRRTEXT
 70
     1
  9
$LTSCALE
 40
1.0
  9
$ATTMODE
 70
     1
  9
$TEXTSIZE
 40
0.2
  9
$TRACEWID
 40
0.05
  9
$TEXTSTYLE
  7
Standard
  9
$CLAYER
  8
0
  9
$CELTYPE
  6
ByLayer
  9
$CECOLOR
 62
   256
  9
$CELTSCALE
 40
1.0
  9
$DISPSILH
 70
     0
  9
$DIMSCALE
 40
1.0
  9
$DIMASZ
 40
0.18
  9
$DIMEXO
 40
0.0625
  9
$DIMDLI
 40
0.38
  9
$DIMRND
 40
0.0
  9
$DIMDLE
 40
0.0
  9
$DIMEXE
 40
0.18
  9
$DIMTP
 40
0.0
  9
$DIMTM
 40
0.0
  9
$DIMTXT
 40
0.18
  9
$DIMCEN
 40
0.09
  9
$DIMTSZ
 40
0.0
  9
$DIMTOL
 70
     0
  9
$DIMLIM
 70
     0
  9
$DIMTIH
 70
     1
  9
$DIMTOH
 70
     1
  9
$DIMSE1
 70
     0
  9
$DIMSE2
 70
     0
  9
$DIMTAD
 70
     0
  9
$DIMZIN
 70
     0
  9
$DIMBLK
  1

  9
$DIMASO
 70
     1
  9
$DIMSHO
 70
     1
  9
$DIMPOST
  1

  9
$DIMAPOST
  1

  9
$DIMALT
 70
     0
  9
$DIMALTD
 70
     2
  9
$DIMALTF
 40
25.4
  9
$DIMLFAC
 40
1.0
  9
$DIMTOFL
 70
     0
  9
$DIMTVP
 40
0.0
  9
$DIMTIX
 70
     0
  9
$DIMSOXD
 70
     0
  9
$DIMSAH
 70
     0
  9
$DIMBLK1
  1

  9
$DIMBLK2
  1

  9
$DIMSTYLE
  2
Standard
  9
$DIMCLRD
 70
     0
  9
$DIMCLRE
 70
     0
  9
$DIMCLRT
 70
     0
  9
$DIMTFAC
 40
1.0
  9
$DIMGAP
 40
0.09
  9
$DIMJUST
 70
     0
  9
$DIMSD1
 70
     0
  9
$DIMSD2
 70
     0
  9
$DIMTOLJ
 70
     1
  9
$DIMTZIN
 70
     0
  9
$DIMALTZ
 70
     0
  9
$DIMALTTZ
 70
     0
  9
$DIMUPT
 70
     0
  9
$DIMDEC
 70
     4
  9
$DIMTDEC
 70
     4
  9
$DIMALTU
 70
     2
  9
$DIMALTTD
 70
     2
  9
$DIMTXSTY
  7
Standard
  9
$DIMAUNIT
 70
     0
  9
$DIMADEC
 70
     0
  9
$DIMALTRND
 40
0.0
  9
$DIMAZIN
 70
     0
  9
$DIMDSEP
 70
    46
  9
$DIMATFIT
 70
     3
  9
$DIMFRAC
 70
     0
  9
$DIMLDRBLK
  1

  9
$DIMLUNIT
 70
     2
  9
$DIMLWD
 70
    -2
  9
$DIMLWE
 70
    -2
  9
$DIMTMOVE
 70
     0
  9
$DIMFXL
 40
1.0
  9
$DIMFXLON
 70
     0
  9
$DIMJOGANG
 40
0.7853981633974483
  9
$DIMTFILL
 70
     0
  9
$DIMTFILLCLR
 70
     0
  9
$DIMARCSYM
 70
     0
  9
$DIMLTYPE
  6

  9
$DIMLTEX1
  6

  9
$DIMLTEX2
  6

  9
$DIMTXTDIRECTION
 70
     0
  9
$LUNITS
 70
     2
  9
$LUPREC
 70
     4
  9
$SKETCHINC
 40
0.1
  9
$FILLETRAD
 40
0.5
  9
$AUNITS
 70
     0
  9
$AUPREC
 70
     0
  9
$MENU
  1
.
  9
$ELEVATION
 40
0.0
  9
$PELEVATION
 40
0.0
  9
$THICKNESS
 40
0.0
  9
$LIMCHECK
 70
     0
  9
$CHAMFERA
 40
0.5
  9
$CHAMFERB
 40
0.5
  9
$CHAMFERC
 40
1.0
  9
$CHAMFERD
 40
0.0
  9
$SKPOLY
 70
     0
  9
$TDCREATE
 40
2459705.374843993
  9
$TDUCREATE
 40
2459705.54151066
  9
$TDUPDATE
 40
2459705.374844132
  9
$TDUUPDATE
 40
2459705.541510799
  9
$TDINDWG
 40
0.0000000116
  9
$TDUSRTIMER
 40
0.0000000116
  9
$USRTIMER
 70
     1
  9
$ANGBASE
 50
0.0
  9
$ANGDIR
 70
     0
  9
$PDMODE
 70
     0
  9
$PDSIZE
 40
0.0
  9
$PLINEWID
 40
0.0
  9
$SPLFRAME
 70
     0
  9
$SPLINETYPE
 70
     6
  9
$SPLINESEGS
 70
     8
  9
$HANDSEED
  5
6B
  9
$SURFTAB1
 70
     6
  9
$SURFTAB2
 70
     6
  9
$SURFTYPE
 70
     6
  9
$SURFU
 70
     6
  9
$SURFV
 70
     6
  9
$UCSBASE
  2

  9
$UCSNAME
  2

  9
$UCSORG
 10
0.0
 20
0.0
 30
0.0
  9
$UCSXDIR
 10
1.0
 20
0.0
 30
0.0
  9
$UCSYDIR
 10
0.0
 20
1.0
 30
0.0
  9
$UCSORTHOREF
  2

  9
$UCSORTHOVIEW
 70
     0
  9
$UCSORGTOP
 10
0.0
 20
0.0
 30
0.0
  9
$UCSORGBOTTOM
 10
0.0
 20
0.0
 30
0.0
  9
$UCSORGLEFT
 10
0.0
 20
0.0
 30
0.0
  9
$UCSORGRIGHT
 10
0.0
 20
0.0
 30
0.0
  9
$UCSORGFRONT
 10
0.0
 20
0.0
 30
0.0
  9
$UCSORGBACK
 10
0.0
 20
0.0
 30
0.0
  9
$PUCSBASE
  2

  9
$PUCSNAME
  2

  9
$PUCSORG
 10
0.0
 20
0.0
 30
0.0
  9
$PUCSXDIR
 10
1.0
 20
0.0
 30
0.0
  9
$PUCSYDIR
 10
0.0
 20
1.0
 30
0.0
  9
$PUCSORTHOREF
  2

  9
$PUCSORTHOVIEW
 70
     0
  9
$PUCSORGTOP
 10
0.0
 20
0.0
 30
0.0
  9
$PUCSORGBOTTOM
 10
0.0
 20
0.0
 30
0.0
  9
$PUCSORGLEFT
 10
0.0
 20
0.0
 30
0.0
  9
$PUCSORGRIGHT
 10
0.0
 20
0.0
 30
0.0
  9
$PUCSORGFRONT
 10
0.0
 20
0.0
 30
0.0
  9
$PUCSORGBACK
 10
0.0
 20
0.0
 30
0.0
  9
$USERI1
 70
     0
  9
$USERI2
 70
     0
  9
$USERI3
 70
     0
  9
$USERI4
 70
     0
  9
$USERI5
 70
     0
  9
$USERR1
 40
0.0
  9
$USERR2
 40
0.0
  9
$USERR3
 40
0.0
  9
$USERR4
 40
0.0
  9
$USERR5
 40
0.0
  9
$WORLDVIEW
 70
     1
  9
$SHADEDGE
 70
     3
  9
$SHADEDIF
 70
    70
  9
$TILEMODE
 70
     1
  9
$MAXACTVP
 70
    64
  9
$PINSBASE
 10
0.0
 20
0.0
 30
0.0
  9
$PLIMCHECK
 70
     0
  9
$PEXTMIN
 10
1.000000000000000E+20
 20
1.000000000000000E+20
 30
1.000000000000000E+20
  9
$PEXTMAX
 10
-1.000000000000000E+20
 20
-1.000000000000000E+20
 30
-1.000000000000000E+20
  9
$PLIMMIN
 10
0.0
 20
0.0
  9
$PLIMMAX
 10
12.0
 20
9.0
  9
$UNITMODE
 70
     0
  9
$VISRETAIN
 70
     1
  9
$PLINEGEN
 70
     0
  9
$PSLTSCALE
 70
     1
  9
$TREEDEPTH
 70
  3020
  9
$CMLSTYLE
  2
Standard
  9
$CMLJUST
 70
     0
  9
$CMLSCALE
 40
1.0
  9
$PROXYGRAPHICS
 70
     1
  9
$MEASUREMENT
 70
     0
  9
$CELWEIGHT
370
    -1
  9
$ENDCAPS
280
     0
  9
$JOINSTYLE
280
     0
  9
$LWDISPLAY
290
     1
  9
$INSUNITS
 70
     4
  9
$HYPERLINKBASE
  1

  9
$STYLESHEET
  1

  9
$XEDIT
290
     1
  9
$CEPSNTYPE
380
     0
  9
$PSTYLEMODE
290
     1
  9
$FINGERPRINTGUID
  2
{379F18E4-AAA7-43F6-A0E7-B1CDF5355D52}
  9
$VERSIONGUID
  2
{FAEB1C32-E019-11D5-929B-00C0DF256EC4}
  9
$EXTNAMES
290
     1
  9
$PSVPSCALE
 40
0.0
  9
$OLESTARTUP
290
     0
  9
$SORTENTS
280
   127
  9
$INDEXCTL
280
     0
  9
$HIDETEXT
280
     1
  9
$XCLIPFRAME
280
     2
  9
$HALOGAP
280
     0
  9
$OBSCOLOR
 70
   257
  9
$OBSLTYPE
280
     0
  9
$INTERSECTIONDISPLAY
280
     0
  9
$INTERSECTIONCOLOR
 70
   257
  9
$DIMASSOC
280
     2
  9
$PROJECTNAME
  1

  9
$CAMERADISPLAY
290
     0
  9
$LENSLENGTH
 40
50.0
  9
$CAMERAHEIGHT
 40
0.0
  9
$STEPSPERSEC
 40
2.0
  9
$STEPSIZE
 40
6.0
  9
$3DDWFPREC
 40
2.0
  9
$PSOLWIDTH
 40
0.25
  9
$PSOLHEIGHT
 40
4.0
  9
$LOFTANG1
 40
1.570796326794897
  9
$LOFTANG2
 40
1.570796326794897
  9
$LOFTMAG1
 40
0.0
  9
$LOFTMAG2
 40
0.0
  9
$LOFTPARAM
 70
     7
  9
$LOFTNORMALS
280
     1
  9
$LATITUDE
 40
37.795
  9
$LONGITUDE
 40
-122.394
  9
$NORTHDIRECTION
 40
0.0
  9
$TIMEZONE
 70
 -8000
  9
$LIGHTGLYPHDISPLAY
280
     1
  9
$TILEMODELIGHTSYNCH
280
     1
  9
$CMATERIAL
347
3C
  9
$SOLIDHIST
280
     1
  9
$SHOWHIST
280
     1
  9
$DWFFRAME
280
     2
  9
$DGNFRAME
280
     2
  9
$REALWORLDSCALE
290
     1
  9
$INTERFERECOLOR
 62
   256
  9
$CSHADOW
280
     0
  9
$SHADOWPLANELOCATION
 40
0.0
  0
ENDSEC
  0
SECTION
  2
CLASSES
  0
CLASS
  1
ACDBDICTIONARYWDFLT
  2
AcDbDictionaryWithDefault
  3
ObjectDBX Classes
 90
        0
 91
        4
280
     0
281
     0
  0
CLASS
  1
VISUALSTYLE
  2
AcDbVisualStyle
  3
ObjectDBX Classes
 90
     4095
 91
        4
280
     0
281
     0
  0
CLASS
  1
MATERIAL
  2
AcDbMaterial
  3
ObjectDBX Classes
 90
     1153
 91
        4
280
     0
281
     0
  0
CLASS
  1
SUN
  2
AcDbSun
  3
SCENEOE
 90
     1024
 91
        4
280
     0
281
     0
  0
ENDSEC
  0
SECTION
  2
TABLES
  0
TABLE
  2
VPORT
  5
8
330
0
100
AcDbSymbolTable
 70
     1
  0
VPORT
  5
29
330
8
100
AcDbSymbolTableRecord
100
AcDbViewportTableRecord
  2
*Active
 70
     0
 10
0.0
 20
0.0
 11
1.0
 21
1.0
 12
0.0
 22
0.0
 13
0.0
 23
0.0
 14
0.5
 24
0.5
 15
0.5
 25
0.5
 16
0.0
 26
0.0
 36
1.0
 17
180.3399999549149
 27
-82.54999997936251
 37
0.0
 40
165.099999958725
 41
2.184615384615384
 42
50.0
 43
0.0
 44
0.0
 50
0.0
 51
0.0
 71
     0
 72
   100
 73
     1
 74
     3
 75
     0
 76
     0
 77
     0
 78
     0
281
     0
 65
     1
110
0.0
120
0.0
130
0.0
111
1.0
121
0.0
131
0.0
112
0.0
122
1.0
132
0.0
 79
     0
146
0.0
 60
     3
 61
     5
292
     1
282
     1
141
0.0
142
0.0
 63
   250
361
3F
  0
ENDTAB
  0
TABLE
  2
LTYPE
  5
5
330
0
100
AcDbSymbolTable
 70
     1
  0
LTYPE
  5
14
330
5
100
AcDbSymbolTableRecord
100
AcDbLinetypeTableRecord
  2
ByBlock
 70
     0
  3

 72
    65
 73
     0
 40
0.0
  0
LTYPE
  5
15
330
5
100
AcDbSymbolTableRecord
100
AcDbLinetypeTableRecord
  2
ByLayer
 70
     0
  3

 72
    65
 73
     0
 40
0.0
  0
LTYPE
  5
16
330
5
100
AcDbSymbolTableRecord
100
AcDbLinetypeTableRecord
  2
Continuous
 70
     0
  3
Solid line
 72
    65
 73
     0
 40
0.0
  0
ENDTAB
  0
TABLE
  2
LAYER
  5
2
330
0
100
AcDbSymbolTable
 70
     2
  0
LAYER
  5
10
330
2
100
AcDbSymbolTableRecord
100
AcDbLayerTableRecord
  2
0
 70
     0
 62
     7
  6
Continuous
370
    -3
390
F
347
3E
  0
LAYER
  5
40
330
2
100
AcDbSymbolTableRecord
100
AcDbLayerTableRecord
  2
Layer 2
 70
     0
 62
     7
  6
Continuous
370
    -3
390
F
347
3E
  0
ENDTAB
  0
TABLE
  2
STYLE
  5
3
330
0
100
AcDbSymbolTable
 70
     1
  0
STYLE
  5
11
330
3
100
AcDbSymbolTableRecord
100
AcDbTextStyleTableRecord
  2
Standard
 70
     0
 40
0.0
 41
1.0
 50
0.0
 71
     0
 42
0.2
  3
txt
  4

  0
ENDTAB
  0
TABLE
  2
VIEW
  5
6
330
0
100
AcDbSymbolTable
 70
     0
  0
ENDTAB
  0
TABLE
  2
UCS
  5
7
330
0
100
AcDbSymbolTable
 70
     0
  0
ENDTAB
  0
TABLE
  2
APPID
  5
9
330
0
100
AcDbSymbolTable
 70
     1
  0
APPID
  5
12
330
9
100
AcDbSymbolTableRecord
100
AcDbRegAppTableRecord
  2
ACAD
 70
     0
  0
ENDTAB
  0
TABLE
  2
DIMSTYLE
  5
A
330
0
100
AcDbSymbolTable
 70
     1
100
AcDbDimStyleTable
  0
DIMSTYLE
105
27
330
A
100
AcDbSymbolTableRecord
100
AcDbDimStyleTableRecord
  2
Standard
 70
     0
178
     0
340
11
  0
ENDTAB
  0
TABLE
  2
BLOCK_RECORD
  5
1
330
0
100
AcDbSymbolTable
 70
     1
  0
BLOCK_RECORD
  5
1F
330
1
100
AcDbSymbolTableRecord
100
AcDbBlockTableRecord
  2
*Model_Space
340
22
 70
     0
280
     1
281
     0
  0
BLOCK_RECORD
  5
1B
330
1
100
AcDbSymbolTableRecord
100
AcDbBlockTableRecord
  2
*Paper_Space
340
1E
 70
     0
280
     1
281
     0
  0
BLOCK_RECORD
  5
23
330
1
100
AcDbSymbolTableRecord
100
AcDbBlockTableRecord
  2
*Paper_Space0
340
26
 70
     0
280
     1
281
     0
  0
ENDTAB
  0
ENDSEC
  0
SECTION
  2
BLOCKS
  0
BLOCK
  5
20
330
1F
100
AcDbEntity
  8
0
100
AcDbBlockBegin
  2
*Model_Space
 70
     0
 10
0.0
 20
0.0
 30
0.0
  3
*Model_Space
  1

  0
ENDBLK
  5
21
330
1F
100
AcDbEntity
  8
0
100
AcDbBlockEnd
  0
BLOCK
  5
1C
330
1B
100
AcDbEntity
 67
     1
  8
0
100
AcDbBlockBegin
  2
*Paper_Space
 70
     0
 10
0.0
 20
0.0
 30
0.0
  3
*Paper_Space
  1

  0
ENDBLK
  5
1D
330
1B
100
AcDbEntity
 67
     1
  8
0
100
AcDbBlockEnd
  0
BLOCK
  5
24
330
23
100
AcDbEntity
  8
0
100
AcDbBlockBegin
  2
*Paper_Space0
 70
     0
 10
0.0
 20
0.0
 30
0.0
  3
*Paper_Space0
  1

  0
ENDBLK
  5
25
330
23
100
AcDbEntity
  8
0
100
AcDbBlockEnd
  0
ENDSEC
  0
SECTION
  2
ENTITIES
  0
SPLINE
  5
41
330
1F
100
AcDbEntity
  8
Layer 2
 62
   250
420
  2301728
370
    35
100
AcDbSpline
210
0.0
220
0.0
230
1.0
 70
    11
 71
     3
 72
    17
 73
    13
 74
     0
 42
0.0000000001
 43
0.0000000001
 12
1.0
 22
0.0
 32
0.0
 13
1.0
 23
0.0
 33
0.0
 40
0.0
 40
0.0
 40
0.0
 40
0.0
 40
1.0
 40
1.0
 40
1.0
 40
2.0
 40
2.0
 40
2.0
 40
3.0
 40
3.0
 40
3.0
 40
4.0
 40
4.0
 40
4.0
 40
4.0
 10
27.77363066598326
 20
-64.4383802655805
 30
0.0
 10
27.77363066598326
 20
-70.51351251186169
 30
0.0
 10
22.84876291501438
 20
-75.43838026283025
 30
0.0
 10
16.7736306687332
 20
-75.43838026283025
 30
0.0
 10
10.69849842245201
 20
-75.43838026283025
 30
0.0
 10
5.77363067148313
 20
-70.51351251186169
 30
0.0
 10
5.77363067148313
 20
-64.4383802655805
 30
0.0
 10
5.77363067148313
 20
-58.36324801929933
 30
0.0
 10
10.69849842245201
 20
-53.43838026833044
 30
0.0
 10
16.7736306687332
 20
-53.43838026833044
 30
0.0
 10
22.84876291501438
 20
-53.43838026833044
 30
0.0
 10
27.77363066598326
 20
-58.36324801929933
 30
0.0
 10
27.77363066598326
 20
-64.4383802655805
 30
0.0
  0
HATCH
  5
42
330
1F
100
AcDbEntity
  8
Layer 2
 62
     7
420
 16776959
100
AcDbHatch
 10
0.0
 20
0.0
 30
0.0
210
0.0
220
0.0
230
1.0
  2
SOLID
 70
     1
 71
     0
 91
        1
 92
        1
 93
        1
 72
     4
 94
        3
 73
     0
 74
     1
 95
       17
 96
       13
 40
0.0
 40
0.0
 40
0.0
 40
0.0
 40
1.0
 40
1.0
 40
1.0
 40
2.0
 40
2.0
 40
2.0
 40
3.0
 40
3.0
 40
3.0
 40
4.0
 40
4.0
 40
4.0
 40
4.0
 10
27.77363066598326
 20
-64.4383802655805
 10
27.77363066598326
 20
-70.51351251186169
 10
22.84876291501438
 20
-75.43838026283025
 10
16.7736306687332
 20
-75.43838026283025
 10
10.69849842245201
 20
-75.43838026283025
 10
5.77363067148313
 20
-70.51351251186169
 10
5.77363067148313
 20
-64.4383802655805
 10
5.77363067148313
 20
-58.36324801929933
 10
10.69849842245201
 20
-53.43838026833044
 10
16.7736306687332
 20
-53.43838026833044
 10
22.84876291501438
 20
-53.43838026833044
 10
27.77363066598326
 20
-58.36324801929933
 10
27.77363066598326
 20
-64.4383802655805
 97
        0
 97
        0
 75
     2
 76
     1
 98
        0
  0
SPLINE
  5
43
330
1F
100
AcDbEntity
  8
Layer 2
 62
   250
420
  2301728
370
    35
100
AcDbSpline
210
0.0
220
0.0
230
1.0
 70
    11
 71
     3
 72
    17
 73
    13
 74
     0
 42
0.0000000001
 43
0.0000000001
 12
1.0
 22
0.0
 32
0.0
 13
1.0
 23
0.0
 33
0.0
 40
0.0
 40
0.0
 40
0.0
 40
0.0
 40
1.0
 40
1.0
 40
1.0
 40
2.0
 40
2.0
 40
2.0
 40
3.0
 40
3.0
 40
3.0
 40
4.0
 40
4.0
 40
4.0
 40
4.0
 10
53.77057901629117
 20
-47.97280906468958
 30
0.0
 10
53.77057901629117
 20
-54.04794131097077
 30
0.0
 10
48.84571126532261
 20
-58.97280906193933
 30
0.0
 10
42.77057901904143
 20
-58.97280906193933
 30
0.0
 10
36.69544677276024
 20
-58.97280906193933
 30
0.0
 10
31.77057902179136
 20
-54.04794131097077
 30
0.0
 10
31.77057902179136
 20
-47.97280906468958
 30
0.0
 10
31.77057902179136
 20
-41.89767681840839
 30
0.0
 10
36.69544677276024
 20
-36.97280906743951
 30
0.0
 10
42.77057901904143
 20
-36.97280906743951
 30
0.0
 10
48.84571126532261
 20
-36.97280906743951
 30
0.0
 10
53.77057901629117
 20
-41.89767681840839
 30
0.0
 10
53.77057901629117
 20
-47.97280906468958
 30
0.0
  0
HATCH
  5
44
330
1F
100
AcDbEntity
  8
Layer 2
 62
     7
420
 16776959
100
AcDbHatch
 10
0.0
 20
0.0
 30
0.0
210
0.0
220
0.0
230
1.0
  2
SOLID
 70
     1
 71
     0
 91
        1
 92
        1
 93
        1
 72
     4
 94
        3
 73
     0
 74
     1
 95
       17
 96
       13
 40
0.0
 40
0.0
 40
0.0
 40
0.0
 40
1.0
 40
1.0
 40
1.0
 40
2.0
 40
2.0
 40
2.0
 40
3.0
 40
3.0
 40
3.0
 40
4.0
 40
4.0
 40
4.0
 40
4.0
 10
53.77057901629117
 20
-47.97280906468958
 10
53.77057901629117
 20
-54.04794131097077
 10
48.84571126532261
 20
-58.97280906193933
 10
42.77057901904143
 20
-58.97280906193933
 10
36.69544677276024
 20
-58.97280906193933
 10
31.77057902179136
 20
-54.04794131097077
 10
31.77057902179136
 20
-47.97280906468958
 10
31.77057902179136
 20
-41.89767681840839
 10
36.69544677276024
 20
-36.97280906743951
 10
42.77057901904143
 20
-36.97280906743951
 10
48.84571126532261
 20
-36.97280906743951
 10
53.77057901629117
 20
-41.89767681840839
 10
53.77057901629117
 20
-47.97280906468958
 97
        0
 97
        0
 75
     2
 76
     1
 98
        0
  0
SPLINE
  5
45
330
1F
100
AcDbEntity
  8
Layer 2
 62
   250
420
  2301728
370
    35
100
AcDbSpline
210
0.0
220
0.0
230
1.0
 70
    11
 71
     3
 72
    17
 73
    13
 74
     0
 42
0.0000000001
 43
0.0000000001
 12
1.0
 22
0.0
 32
0.0
 13
1.0
 23
0.0
 33
0.0
 40
0.0
 40
0.0
 40
0.0
 40
0.0
 40
1.0
 40
1.0
 40
1.0
 40
2.0
 40
2.0
 40
2.0
 40
3.0
 40
3.0
 40
3.0
 40
4.0
 40
4.0
 40
4.0
 40
4.0
 10
82.58904536276415
 20
-44.88724568517924
 30
0.0
 10
82.58904536276415
 20
-50.96237793146043
 30
0.0
 10
77.6641776117956
 20
-55.88724568242899
 30
0.0
 10
71.58904536551441
 20
-55.88724568242899
 30
0.0
 10
65.51391311923322
 20
-55.88724568242899
 30
0.0
 10
60.58904536826434
 20
-50.96237793146043
 30
0.0
 10
60.58904536826434
 20
-44.88724568517924
 30
0.0
 10
60.58904536826434
 20
-38.81211343889806
 30
0.0
 10
65.51391311923322
 20
-33.88724568792918
 30
0.0
 10
71.58904536551441
 20
-33.88724568792918
 30
0.0
 10
77.6641776117956
 20
-33.88724568792918
 30
0.0
 10
82.58904536276415
 20
-38.81211343889806
 30
0.0
 10
82.58904536276415
 20
-44.88724568517924
 30
0.0
  0
HATCH
  5
46
330
1F
100
AcDbEntity
  8
Layer 2
 62
     7
420
 16776959
100
AcDbHatch
 10
0.0
 20
0.0
 30
0.0
210
0.0
220
0.0
230
1.0
  2
SOLID
 70
     1
 71
     0
 91
        1
 92
        1
 93
        1
 72
     4
 94
        3
 73
     0
 74
     1
 95
       17
 96
       13
 40
0.0
 40
0.0
 40
0.0
 40
0.0
 40
1.0
 40
1.0
 40
1.0
 40
2.0
 40
2.0
 40
2.0
 40
3.0
 40
3.0
 40
3.0
 40
4.0
 40
4.0
 40
4.0
 40
4.0
 10
82.58904536276415
 20
-44.88724568517924
 10
82.58904536276415
 20
-50.96237793146043
 10
77.6641776117956
 20
-55.88724568242899
 10
71.58904536551441
 20
-55.88724568242899
 10
65.51391311923322
 20
-55.88724568242899
 10
60.58904536826434
 20
-50.96237793146043
 10
60.58904536826434
 20
-44.88724568517924
 10
60.58904536826434
 20
-38.81211343889806
 10
65.51391311923322
 20
-33.88724568792918
 10
71.58904536551441
 20
-33.88724568792918
 10
77.6641776117956
 20
-33.88724568792918
 10
82.58904536276415
 20
-38.81211343889806
 10
82.58904536276415
 20
-44.88724568517924
 97
        0
 97
        0
 75
     2
 76
     1
 98
        0
  0
SPLINE
  5
47
330
1F
100
AcDbEntity
  8
Layer 2
 62
   250
420
  2301728
370
    35
100
AcDbSpline
210
0.0
220
0.0
230
1.0
 70
    11
 71
     3
 72
    17
 73
    13
 74
     0
 42
0.0000000001
 43
0.0000000001
 12
1.0
 22
0.0
 32
0.0
 13
1.0
 23
0.0
 33
0.0
 40
0.0
 40
0.0
 40
0.0
 40
0.0
 40
1.0
 40
1.0
 40
1.0
 40
2.0
 40
2.0
 40
2.0
 40
3.0
 40
3.0
 40
3.0
 40
4.0
 40
4.0
 40
4.0
 40
4.0
 10
109.8125586579926
 20
-57.06056336601691
 30
0.0
 10
109.8125586579926
 20
-63.13569561229809
 30
0.0
 10
104.887690907024
 20
-68.06056336326665
 30
0.0
 10
98.81255866074282
 20
-68.06056336326665
 30
0.0
 10
92.73742641446164
 20
-68.06056336326665
 30
0.0
 10
87.81255866349275
 20
-63.13569561229809
 30
0.0
 10
87.81255866349275
 20
-57.06056336601691
 30
0.0
 10
87.81255866349275
 20
-50.98543111973572
 30
0.0
 10
92.73742641446164
 20
-46.06056336876684
 30
0.0
 10
98.81255866074282
 20
-46.06056336876684
 30
0.0
 10
104.887690907024
 20
-46.06056336876684
 30
0.0
 10
109.8125586579926
 20
-50.98543111973572
 30
0.0
 10
109.8125586579926
 20
-57.06056336601691
 30
0.0
  0
HATCH
  5
48
330
1F
100
AcDbEntity
  8
Layer 2
 62
     7
420
 16776959
100
AcDbHatch
 10
0.0
 20
0.0
 30
0.0
210
0.0
220
0.0
230
1.0
  2
SOLID
 70
     1
 71
     0
 91
        1
 92
        1
 93
        1
 72
     4
 94
        3
 73
     0
 74
     1
 95
       17
 96
       13
 40
0.0
 40
0.0
 40
0.0
 40
0.0
 40
1.0
 40
1.0
 40
1.0
 40
2.0
 40
2.0
 40
2.0
 40
3.0
 40
3.0
 40
3.0
 40
4.0
 40
4.0
 40
4.0
 40
4.0
 10
109.8125586579926
 20
-57.06056336601691
 10
109.8125586579926
 20
-63.13569561229809
 10
104.887690907024
 20
-68.06056336326665
 10
98.81255866074282
 20
-68.06056336326665
 10
92.73742641446164
 20
-68.06056336326665
 10
87.81255866349275
 20
-63.13569561229809
 10
87.81255866349275
 20
-57.06056336601691
 10
87.81255866349275
 20
-50.98543111973572
 10
92.73742641446164
 20
-46.06056336876684
 10
98.81255866074282
 20
-46.06056336876684
 10
104.887690907024
 20
-46.06056336876684
 10
109.8125586579926
 20
-50.98543111973572
 10
109.8125586579926
 20
-57.06056336601691
 97
        0
 97
        0
 75
     2
 76
     1
 98
        0
  0
SPLINE
  5
49
330
1F
100
AcDbEntity
  8
Layer 2
 62
   250
420
  2301728
370
    35
100
AcDbSpline
210
0.0
220
0.0
230
1.0
 70
    11
 71
     3
 72
    17
 73
    13
 74
     0
 42
0.0000000001
 43
0.0000000001
 12
1.0
 22
0.0
 32
0.0
 13
1.0
 23
0.0
 33
0.0
 40
0.0
 40
0.0
 40
0.0
 40
0.0
 40
1.0
 40
1.0
 40
1.0
 40
2.0
 40
2.0
 40
2.0
 40
3.0
 40
3.0
 40
3.0
 40
4.0
 40
4.0
 40
4.0
 40
4.0
 10
117.1215179675898
 20
-125.7329811892237
 30
0.0
 10
117.1215179675898
 20
-131.8081134355052
 30
0.0
 10
112.1966502166212
 20
-136.7329811864738
 30
0.0
 10
106.12151797034
 20
-136.7329811864738
 30
0.0
 10
100.0463857240588
 20
-136.7329811864738
 30
0.0
 10
95.12151797308995
 20
-131.8081134355052
 30
0.0
 10
95.12151797308995
 20
-125.7329811892237
 30
0.0
 10
95.12151797308995
 20
-119.6578489429428
 30
0.0
 10
100.0463857240588
 20
-114.7329811919743
 30
0.0
 10
106.12151797034
 20
-114.7329811919743
 30
0.0
 10
112.1966502166212
 20
-114.7329811919743
 30
0.0
 10
117.1215179675898
 20
-119.6578489429428
 30
0.0
 10
117.1215179675898
 20
-125.7329811892237
 30
0.0
  0
HATCH
  5
4A
330
1F
100
AcDbEntity
  8
Layer 2
 62
     7
420
 16776959
100
AcDbHatch
 10
0.0
 20
0.0
 30
0.0
210
0.0
220
0.0
230
1.0
  2
SOLID
 70
     1
 71
     0
 91
        1
 92
        1
 93
        1
 72
     4
 94
        3
 73
     0
 74
     1
 95
       17
 96
       13
 40
0.0
 40
0.0
 40
0.0
 40
0.0
 40
1.0
 40
1.0
 40
1.0
 40
2.0
 40
2.0
 40
2.0
 40
3.0
 40
3.0
 40
3.0
 40
4.0
 40
4.0
 40
4.0
 40
4.0
 10
117.1215179675898
 20
-125.7329811892237
 10
117.1215179675898
 20
-131.8081134355052
 10
112.1966502166212
 20
-136.7329811864738
 10
106.12151797034
 20
-136.7329811864738
 10
100.0463857240588
 20
-136.7329811864738
 10
95.12151797308995
 20
-131.8081134355052
 10
95.12151797308995
 20
-125.7329811892237
 10
95.12151797308995
 20
-119.6578489429428
 10
100.0463857240588
 20
-114.7329811919743
 10
106.12151797034
 20
-114.7329811919743
 10
112.1966502166212
 20
-114.7329811919743
 10
117.1215179675898
 20
-119.6578489429428
 10
117.1215179675898
 20
-125.7329811892237
 97
        0
 97
        0
 75
     2
 76
     1
 98
        0
  0
SPLINE
  5
4B
330
1F
100
AcDbEntity
  8
Layer 2
 62
   250
420
  2301728
370
    35
100
AcDbSpline
210
0.0
220
0.0
230
1.0
 70
    11
 71
     3
 72
    17
 73
    13
 74
     0
 42
0.0000000001
 43
0.0000000001
 12
1.0
 22
0.0
 32
0.0
 13
1.0
 23
0.0
 33
0.0
 40
0.0
 40
0.0
 40
0.0
 40
0.0
 40
1.0
 40
1.0
 40
1.0
 40
2.0
 40
2.0
 40
2.0
 40
3.0
 40
3.0
 40
3.0
 40
4.0
 40
4.0
 40
4.0
 40
4.0
 10
140.2657276644637
 20
-142.0253520771701
 30
0.0
 10
140.2657276644637
 20
-148.1004843234509
 30
0.0
 10
135.3408599134951
 20
-153.0253520744195
 30
0.0
 10
129.2657276672139
 20
-153.0253520744195
 30
0.0
 10
123.1905954209327
 20
-153.0253520744195
 30
0.0
 10
118.2657276699639
 20
-148.1004843234509
 30
0.0
 10
118.2657276699639
 20
-142.0253520771701
 30
0.0
 10
118.2657276699639
 20
-135.9502198308886
 30
0.0
 10
123.1905954209327
 20
-131.0253520799194
 30
0.0
 10
129.2657276672139
 20
-131.0253520799194
 30
0.0
 10
135.3408599134951
 20
-131.0253520799194
 30
0.0
 10
140.2657276644637
 20
-135.9502198308886
 30
0.0
 10
140.2657276644637
 20
-142.0253520771701
 30
0.0
  0
HATCH
  5
4C
330
1F
100
AcDbEntity
  8
Layer 2
 62
     7
420
 16776959
100
AcDbHatch
 10
0.0
 20
0.0
 30
0.0
210
0.0
220
0.0
230
1.0
  2
SOLID
 70
     1
 71
     0
 91
        1
 92
        1
 93
        1
 72
     4
 94
        3
 73
     0
 74
     1
 95
       17
 96
       13
 40
0.0
 40
0.0
 40
0.0
 40
0.0
 40
1.0
 40
1.0
 40
1.0
 40
2.0
 40
2.0
 40
2.0
 40
3.0
 40
3.0
 40
3.0
 40
4.0
 40
4.0
 40
4.0
 40
4.0
 10
140.2657276644637
 20
-142.0253520771701
 10
140.2657276644637
 20
-148.1004843234509
 10
135.3408599134951
 20
-153.0253520744195
 10
129.2657276672139
 20
-153.0253520744195
 10
123.1905954209327
 20
-153.0253520744195
 10
118.2657276699639
 20
-148.1004843234509
 10
118.2657276699639
 20
-142.0253520771701
 10
118.2657276699639
 20
-135.9502198308886
 10
123.1905954209327
 20
-131.0253520799194
 10
129.2657276672139
 20
-131.0253520799194
 10
135.3408599134951
 20
-131.0253520799194
 10
140.2657276644637
 20
-135.9502198308886
 10
140.2657276644637
 20
-142.0253520771701
 97
        0
 97
        0
 75
     2
 76
     1
 98
        0
  0
SPLINE
  5
4D
330
1F
100
AcDbEntity
  8
Layer 2
 62
   250
420
  2301728
370
    35
100
AcDbSpline
210
0.0
220
0.0
230
1.0
 70
    11
 71
     3
 72
    17
 73
    13
 74
     0
 42
0.0000000001
 43
0.0000000001
 12
1.0
 22
0.0
 32
0.0
 13
1.0
 23
0.0
 33
0.0
 40
0.0
 40
0.0
 40
0.0
 40
0.0
 40
1.0
 40
1.0
 40
1.0
 40
2.0
 40
2.0
 40
2.0
 40
3.0
 40
3.0
 40
3.0
 40
4.0
 40
4.0
 40
4.0
 40
4.0
 10
191.2992566031922
 20
-57.06056336601691
 30
0.0
 10
191.2992566031922
 20
-63.13569561229809
 30
0.0
 10
186.3743888522237
 20
-68.06056336326665
 30
0.0
 10
180.2992566059425
 20
-68.06056336326665
 30
0.0
 10
174.2241243596613
 20
-68.06056336326665
 30
0.0
 10
169.2992566086924
 20
-63.13569561229809
 30
0.0
 10
169.2992566086924
 20
-57.06056336601691
 30
0.0
 10
169.2992566086924
 20
-50.98543111973572
 30
0.0
 10
174.2241243596613
 20
-46.06056336876684
 30
0.0
 10
180.2992566059425
 20
-46.06056336876684
 30
0.0
 10
186.3743888522237
 20
-46.06056336876684
 30
0.0
 10
191.2992566031922
 20
-50.98543111973572
 30
0.0
 10
191.2992566031922
 20
-57.06056336601691
 30
0.0
  0
HATCH
  5
4E
330
1F
100
AcDbEntity
  8
Layer 2
 62
     7
420
 16776959
100
AcDbHatch
 10
0.0
 20
0.0
 30
0.0
210
0.0
220
0.0
230
1.0
  2
SOLID
 70
     1
 71
     0
 91
        1
 92
        1
 93
        1
 72
     4
 94
        3
 73
     0
 74
     1
 95
       17
 96
       13
 40
0.0
 40
0.0
 40
0.0
 40
0.0
 40
1.0
 40
1.0
 40
1.0
 40
2.0
 40
2.0
 40
2.0
 40
3.0
 40
3.0
 40
3.0
 40
4.0
 40
4.0
 40
4.0
 40
4.0
 10
191.2992566031922
 20
-57.06056336601691
 10
191.2992566031922
 20
-63.13569561229809
 10
186.3743888522237
 20
-68.06056336326665
 10
180.2992566059425
 20
-68.06056336326665
 10
174.2241243596613
 20
-68.06056336326665
 10
169.2992566086924
 20
-63.13569561229809
 10
169.2992566086924
 20
-57.06056336601691
 10
169.2992566086924
 20
-50.98543111973572
 10
174.2241243596613
 20
-46.06056336876684
 10
180.2992566059425
 20
-46.06056336876684
 10
186.3743888522237
 20
-46.06056336876684
 10
191.2992566031922
 20
-50.98543111973572
 10
191.2992566031922
 20
-57.06056336601691
 97
        0
 97
        0
 75
     2
 76
     1
 98
        0
  0
SPLINE
  5
4F
330
1F
100
AcDbEntity
  8
Layer 2
 62
   250
420
  2301728
370
    35
100
AcDbSpline
210
0.0
220
0.0
230
1.0
 70
    11
 71
     3
 72
    17
 73
    13
 74
     0
 42
0.0000000001
 43
0.0000000001
 12
1.0
 22
0.0
 32
0.0
 13
1.0
 23
0.0
 33
0.0
 40
0.0
 40
0.0
 40
0.0
 40
0.0
 40
1.0
 40
1.0
 40
1.0
 40
2.0
 40
2.0
 40
2.0
 40
3.0
 40
3.0
 40
3.0
 40
4.0
 40
4.0
 40
4.0
 40
4.0
 10
264.9801251293725
 20
-126.0857589669133
 30
0.0
 10
264.9801251293725
 20
-132.1608912131948
 30
0.0
 10
260.055257378404
 20
-137.0857589641633
 30
0.0
 10
253.9801251321224
 20
-137.0857589641633
 30
0.0
 10
247.9049928858416
 20
-137.0857589641633
 30
0.0
 10
242.980125134873
 20
-132.1608912131948
 30
0.0
 10
242.980125134873
 20
-126.0857589669133
 30
0.0
 10
242.980125134873
 20
-120.0106267206324
 30
0.0
 10
247.9049928858416
 20
-115.0857589696639
 30
0.0
 10
253.9801251321224
 20
-115.0857589696639
 30
0.0
 10
260.055257378404
 20
-115.0857589696639
 30
0.0
 10
264.9801251293725
 20
-120.0106267206324
 30
0.0
 10
264.9801251293725
 20
-126.0857589669133
 30
0.0
  0
HATCH
  5
50
330
1F
100
AcDbEntity
  8
Layer 2
 62
     7
420
 16776959
100
AcDbHatch
 10
0.0
 20
0.0
 30
0.0
210
0.0
220
0.0
230
1.0
  2
SOLID
 70
     1
 71
     0
 91
        1
 92
        1
 93
        1
 72
     4
 94
        3
 73
     0
 74
     1
 95
       17
 96
       13
 40
0.0
 40
0.0
 40
0.0
 40
0.0
 40
1.0
 40
1.0
 40
1.0
 40
2.0
 40
2.0
 40
2.0
 40
3.0
 40
3.0
 40
3.0
 40
4.0
 40
4.0
 40
4.0
 40
4.0
 10
264.9801251293725
 20
-126.0857589669133
 10
264.9801251293725
 20
-132.1608912131948
 10
260.055257378404
 20
-137.0857589641633
 10
253.9801251321224
 20
-137.0857589641633
 10
247.9049928858416
 20
-137.0857589641633
 10
242.980125134873
 20
-132.1608912131948
 10
242.980125134873
 20
-126.0857589669133
 10
242.980125134873
 20
-120.0106267206324
 10
247.9049928858416
 20
-115.0857589696639
 10
253.9801251321224
 20
-115.0857589696639
 10
260.055257378404
 20
-115.0857589696639
 10
264.9801251293725
 20
-120.0106267206324
 10
264.9801251293725
 20
-126.0857589669133
 97
        0
 97
        0
 75
     2
 76
     1
 98
        0
  0
SPLINE
  5
51
330
1F
100
AcDbEntity
  8
Layer 2
 62
   250
420
  2301728
370
    35
100
AcDbSpline
210
0.0
220
0.0
230
1.0
 70
    11
 71
     3
 72
    17
 73
    13
 74
     0
 42
0.0000000001
 43
0.0000000001
 12
1.0
 22
0.0
 32
0.0
 13
1.0
 23
0.0
 33
0.0
 40
0.0
 40
0.0
 40
0.0
 40
0.0
 40
1.0
 40
1.0
 40
1.0
 40
2.0
 40
2.0
 40
2.0
 40
3.0
 40
3.0
 40
3.0
 40
4.0
 40
4.0
 40
4.0
 40
4.0
 10
241.8359154324986
 20
-110.1859154654123
 30
0.0
 10
241.8359154324986
 20
-116.2610477116938
 30
0.0
 10
236.91104768153
 20
-121.1859154626617
 30
0.0
 10
230.8359154352491
 20
-121.1859154626617
 30
0.0
 10
224.7607831889677
 20
-121.1859154626617
 30
0.0
 10
219.8359154379984
 20
-116.2610477116938
 30
0.0
 10
219.8359154379984
 20
-110.1859154654123
 30
0.0
 10
219.8359154379984
 20
-104.1107832191308
 30
0.0
 10
224.7607831889677
 20
-99.18591546816222
 30
0.0
 10
230.8359154352491
 20
-99.18591546816222
 30
0.0
 10
236.91104768153
 20
-99.18591546816222
 30
0.0
 10
241.8359154324986
 20
-104.1107832191308
 30
0.0
 10
241.8359154324986
 20
-110.1859154654123
 30
0.0
  0
HATCH
  5
52
330
1F
100
AcDbEntity
  8
Layer 2
 62
     7
420
 16776959
100
AcDbHatch
 10
0.0
 20
0.0
 30
0.0
210
0.0
220
0.0
230
1.0
  2
SOLID
 70
     1
 71
     0
 91
        1
 92
        1
 93
        1
 72
     4
 94
        3
 73
     0
 74
     1
 95
       17
 96
       13
 40
0.0
 40
0.0
 40
0.0
 40
0.0
 40
1.0
 40
1.0
 40
1.0
 40
2.0
 40
2.0
 40
2.0
 40
3.0
 40
3.0
 40
3.0
 40
4.0
 40
4.0
 40
4.0
 40
4.0
 10
241.8359154324986
 20
-110.1859154654123
 10
241.8359154324986
 20
-116.2610477116938
 10
236.91104768153
 20
-121.1859154626617
 10
230.8359154352491
 20
-121.1859154626617
 10
224.7607831889677
 20
-121.1859154626617
 10
219.8359154379984
 20
-116.2610477116938
 10
219.8359154379984
 20
-110.1859154654123
 10
219.8359154379984
 20
-104.1107832191308
 10
224.7607831889677
 20
-99.18591546816222
 10
230.8359154352491
 20
-99.18591546816222
 10
236.91104768153
 20
-99.18591546816222
 10
241.8359154324986
 20
-104.1107832191308
 10
241.8359154324986
 20
-110.1859154654123
 97
        0
 97
        0
 75
     2
 76
     1
 98
        0
  0
SPLINE
  5
53
330
1F
100
AcDbEntity
  8
Layer 2
 62
   250
420
  2301728
370
    35
100
AcDbSpline
210
0.0
220
0.0
230
1.0
 70
    11
 71
     3
 72
    17
 73
    13
 74
     0
 42
0.0000000001
 43
0.0000000001
 12
1.0
 22
0.0
 32
0.0
 13
1.0
 23
0.0
 33
0.0
 40
0.0
 40
0.0
 40
0.0
 40
0.0
 40
1.0
 40
1.0
 40
1.0
 40
2.0
 40
2.0
 40
2.0
 40
3.0
 40
3.0
 40
3.0
 40
4.0
 40
4.0
 40
4.0
 40
4.0
 10
241.8359154324986
 20
-142.0253520771688
 30
0.0
 10
241.8359154324986
 20
-148.1004843234503
 30
0.0
 10
236.91104768153
 20
-153.0253520744189
 30
0.0
 10
230.8359154352491
 20
-153.0253520744189
 30
0.0
 10
224.7607831889677
 20
-153.0253520744189
 30
0.0
 10
219.8359154379984
 20
-148.1004843234503
 30
0.0
 10
219.8359154379984
 20
-142.0253520771688
 30
0.0
 10
219.8359154379984
 20
-135.9502198308879
 30
0.0
 10
224.7607831889677
 20
-131.0253520799194
 30
0.0
 10
230.8359154352491
 20
-131.0253520799194
 30
0.0
 10
236.91104768153
 20
-131.0253520799194
 30
0.0
 10
241.8359154324986
 20
-135.9502198308879
 30
0.0
 10
241.8359154324986
 20
-142.0253520771688
 30
0.0
  0
HATCH
  5
54
330
1F
100
AcDbEntity
  8
Layer 2
 62
     7
420
 16776959
100
AcDbHatch
 10
0.0
 20
0.0
 30
0.0
210
0.0
220
0.0
230
1.0
  2
SOLID
 70
     1
 71
     0
 91
        1
 92
        1
 93
        1
 72
     4
 94
        3
 73
     0
 74
     1
 95
       17
 96
       13
 40
0.0
 40
0.0
 40
0.0
 40
0.0
 40
1.0
 40
1.0
 40
1.0
 40
2.0
 40
2.0
 40
2.0
 40
3.0
 40
3.0
 40
3.0
 40
4.0
 40
4.0
 40
4.0
 40
4.0
 10
241.8359154324986
 20
-142.0253520771688
 10
241.8359154324986
 20
-148.1004843234503
 10
236.91104768153
 20
-153.0253520744189
 10
230.8359154352491
 20
-153.0253520744189
 10
224.7607831889677
 20
-153.0253520744189
 10
219.8359154379984
 20
-148.1004843234503
 10
219.8359154379984
 20
-142.0253520771688
 10
219.8359154379984
 20
-135.9502198308879
 10
224.7607831889677
 20
-131.0253520799194
 10
230.8359154352491
 20
-131.0253520799194
 10
236.91104768153
 20
-131.0253520799194
 10
241.8359154324986
 20
-135.9502198308879
 10
241.8359154324986
 20
-142.0253520771688
 97
        0
 97
        0
 75
     2
 76
     1
 98
        0
  0
SPLINE
  5
55
330
1F
100
AcDbEntity
  8
Layer 2
 62
   250
420
  2301728
370
    35
100
AcDbSpline
210
0.0
220
0.0
230
1.0
 70
    11
 71
     3
 72
    17
 73
    13
 74
     0
 42
0.0000000001
 43
0.0000000001
 12
1.0
 22
0.0
 32
0.0
 13
1.0
 23
0.0
 33
0.0
 40
0.0
 40
0.0
 40
0.0
 40
0.0
 40
1.0
 40
1.0
 40
1.0
 40
2.0
 40
2.0
 40
2.0
 40
3.0
 40
3.0
 40
3.0
 40
4.0
 40
4.0
 40
4.0
 40
4.0
 10
264.9801251293732
 20
-93.85805944445484
 30
0.0
 10
264.9801251293732
 20
-99.9331916907357
 30
0.0
 10
260.0552573784046
 20
-104.8580594417043
 30
0.0
 10
253.9801251321237
 20
-104.8580594417043
 30
0.0
 10
247.9049928858422
 20
-104.8580594417043
 30
0.0
 10
242.980125134873
 20
-99.9331916907357
 30
0.0
 10
242.980125134873
 20
-93.85805944445484
 30
0.0
 10
242.980125134873
 20
-87.78292719817333
 30
0.0
 10
247.9049928858422
 20
-82.85805944720445
 30
0.0
 10
253.9801251321237
 20
-82.85805944720445
 30
0.0
 10
260.0552573784046
 20
-82.85805944720445
 30
0.0
 10
264.9801251293732
 20
-87.78292719817333
 30
0.0
 10
264.9801251293732
 20
-93.85805944445484
 30
0.0
  0
HATCH
  5
56
330
1F
100
AcDbEntity
  8
Layer 2
 62
     7
420
 16776959
100
AcDbHatch
 10
0.0
 20
0.0
 30
0.0
210
0.0
220
0.0
230
1.0
  2
SOLID
 70
     1
 71
     0
 91
        1
 92
        1
 93
        1
 72
     4
 94
        3
 73
     0
 74
     1
 95
       17
 96
       13
 40
0.0
 40
0.0
 40
0.0
 40
0.0
 40
1.0
 40
1.0
 40
1.0
 40
2.0
 40
2.0
 40
2.0
 40
3.0
 40
3.0
 40
3.0
 40
4.0
 40
4.0
 40
4.0
 40
4.0
 10
264.9801251293732
 20
-93.85805944445484
 10
264.9801251293732
 20
-99.9331916907357
 10
260.0552573784046
 20
-104.8580594417043
 10
253.9801251321237
 20
-104.8580594417043
 10
247.9049928858422
 20
-104.8580594417043
 10
242.980125134873
 20
-99.9331916907357
 10
242.980125134873
 20
-93.85805944445484
 10
242.980125134873
 20
-87.78292719817333
 10
247.9049928858422
 20
-82.85805944720445
 10
253.9801251321237
 20
-82.85805944720445
 10
260.0552573784046
 20
-82.85805944720445
 10
264.9801251293732
 20
-87.78292719817333
 10
264.9801251293732
 20
-93.85805944445484
 97
        0
 97
        0
 75
     2
 76
     1
 98
        0
  0
SPLINE
  5
57
330
1F
100
AcDbEntity
  8
Layer 2
 62
   250
420
  2301728
370
    35
100
AcDbSpline
210
0.0
220
0.0
230
1.0
 70
    11
 71
     3
 72
    17
 73
    13
 74
     0
 42
0.0000000001
 43
0.0000000001
 12
1.0
 22
0.0
 32
0.0
 13
1.0
 23
0.0
 33
0.0
 40
0.0
 40
0.0
 40
0.0
 40
0.0
 40
1.0
 40
1.0
 40
1.0
 40
2.0
 40
2.0
 40
2.0
 40
3.0
 40
3.0
 40
3.0
 40
4.0
 40
4.0
 40
4.0
 40
4.0
 10
288.3330202722046
 20
-110.1859154654117
 30
0.0
 10
288.3330202722046
 20
-116.2610477116932
 30
0.0
 10
283.408152521236
 20
-121.1859154626617
 30
0.0
 10
277.3330202749545
 20
-121.1859154626617
 30
0.0
 10
271.2578880286737
 20
-121.1859154626617
 30
0.0
 10
266.3330202777051
 20
-116.2610477116932
 30
0.0
 10
266.3330202777051
 20
-110.1859154654117
 30
0.0
 10
266.3330202777051
 20
-104.1107832191308
 30
0.0
 10
271.2578880286737
 20
-99.18591546816222
 30
0.0
 10
277.3330202749545
 20
-99.18591546816222
 30
0.0
 10
283.408152521236
 20
-99.18591546816222
 30
0.0
 10
288.3330202722046
 20
-104.1107832191308
 30
0.0
 10
288.3330202722046
 20
-110.1859154654117
 30
0.0
  0
HATCH
  5
58
330
1F
100
AcDbEntity
  8
Layer 2
 62
     7
420
 16776959
100
AcDbHatch
 10
0.0
 20
0.0
 30
0.0
210
0.0
220
0.0
230
1.0
  2
SOLID
 70
     1
 71
     0
 91
        1
 92
        1
 93
        1
 72
     4
 94
        3
 73
     0
 74
     1
 95
       17
 96
       13
 40
0.0
 40
0.0
 40
0.0
 40
0.0
 40
1.0
 40
1.0
 40
1.0
 40
2.0
 40
2.0
 40
2.0
 40
3.0
 40
3.0
 40
3.0
 40
4.0
 40
4.0
 40
4.0
 40
4.0
 10
288.3330202722046
 20
-110.1859154654117
 10
288.3330202722046
 20
-116.2610477116932
 10
283.408152521236
 20
-121.1859154626617
 10
277.3330202749545
 20
-121.1859154626617
 10
271.2578880286737
 20
-121.1859154626617
 10
266.3330202777051
 20
-116.2610477116932
 10
266.3330202777051
 20
-110.1859154654117
 10
266.3330202777051
 20
-104.1107832191308
 10
271.2578880286737
 20
-99.18591546816222
 10
277.3330202749545
 20
-99.18591546816222
 10
283.408152521236
 20
-99.18591546816222
 10
288.3330202722046
 20
-104.1107832191308
 10
288.3330202722046
 20
-110.1859154654117
 97
        0
 97
        0
 75
     2
 76
     1
 98
        0
  0
SPLINE
  5
59
330
1F
100
AcDbEntity
  8
Layer 2
 62
   250
420
  2301728
370
    35
100
AcDbSpline
210
0.0
220
0.0
230
1.0
 70
    11
 71
     3
 72
    17
 73
    13
 74
     0
 42
0.0000000001
 43
0.0000000001
 12
1.0
 22
0.0
 32
0.0
 13
1.0
 23
0.0
 33
0.0
 40
0.0
 40
0.0
 40
0.0
 40
0.0
 40
1.0
 40
1.0
 40
1.0
 40
2.0
 40
2.0
 40
2.0
 40
3.0
 40
3.0
 40
3.0
 40
4.0
 40
4.0
 40
4.0
 40
4.0
 10
272.2493348302158
 20
-56.59280123780816
 30
0.0
 10
272.2493348302158
 20
-62.66793348408935
 30
0.0
 10
267.3244670792473
 20
-67.5928012350579
 30
0.0
 10
261.2493348329664
 20
-67.5928012350579
 30
0.0
 10
255.1742025866849
 20
-67.5928012350579
 30
0.0
 10
250.2493348357157
 20
-62.66793348408935
 30
0.0
 10
250.2493348357157
 20
-56.59280123780816
 30
0.0
 10
250.2493348357157
 20
-50.51766899152697
 30
0.0
 10
255.1742025866849
 20
-45.59280124055809
 30
0.0
 10
261.2493348329664
 20
-45.59280124055809
 30
0.0
 10
267.3244670792473
 20
-45.59280124055809
 30
0.0
 10
272.2493348302158
 20
-50.51766899152697
 30
0.0
 10
272.2493348302158
 20
-56.59280123780816
 30
0.0
  0
HATCH
  5
5A
330
1F
100
AcDbEntity
  8
Layer 2
 62
     7
420
 16776959
100
AcDbHatch
 10
0.0
 20
0.0
 30
0.0
210
0.0
220
0.0
230
1.0
  2
SOLID
 70
     1
 71
     0
 91
        1
 92
        1
 93
        1
 72
     4
 94
        3
 73
     0
 74
     1
 95
       17
 96
       13
 40
0.0
 40
0.0
 40
0.0
 40
0.0
 40
1.0
 40
1.0
 40
1.0
 40
2.0
 40
2.0
 40
2.0
 40
3.0
 40
3.0
 40
3.0
 40
4.0
 40
4.0
 40
4.0
 40
4.0
 10
272.2493348302158
 20
-56.59280123780816
 10
272.2493348302158
 20
-62.66793348408935
 10
267.3244670792473
 20
-67.5928012350579
 10
261.2493348329664
 20
-67.5928012350579
 10
255.1742025866849
 20
-67.5928012350579
 10
250.2493348357157
 20
-62.66793348408935
 10
250.2493348357157
 20
-56.59280123780816
 10
250.2493348357157
 20
-50.51766899152697
 10
255.1742025866849
 20
-45.59280124055809
 10
261.2493348329664
 20
-45.59280124055809
 10
267.3244670792473
 20
-45.59280124055809
 10
272.2493348302158
 20
-50.51766899152697
 10
272.2493348302158
 20
-56.59280123780816
 97
        0
 97
        0
 75
     2
 76
     1
 98
        0
  0
SPLINE
  5
5B
330
1F
100
AcDbEntity
  8
Layer 2
 62
   250
420
  2301728
370
    35
100
AcDbSpline
210
0.0
220
0.0
230
1.0
 70
    11
 71
     3
 72
    17
 73
    13
 74
     0
 42
0.0000000001
 43
0.0000000001
 12
1.0
 22
0.0
 32
0.0
 13
1.0
 23
0.0
 33
0.0
 40
0.0
 40
0.0
 40
0.0
 40
0.0
 40
1.0
 40
1.0
 40
1.0
 40
2.0
 40
2.0
 40
2.0
 40
3.0
 40
3.0
 40
3.0
 40
4.0
 40
4.0
 40
4.0
 40
4.0
 10
272.2493348302152
 20
-28.13775429656515
 30
0.0
 10
272.2493348302152
 20
-34.21288654284633
 30
0.0
 10
267.3244670792466
 20
-39.13775429381489
 30
0.0
 10
261.2493348329651
 20
-39.13775429381489
 30
0.0
 10
255.1742025866842
 20
-39.13775429381489
 30
0.0
 10
250.2493348357157
 20
-34.21288654284633
 30
0.0
 10
250.2493348357157
 20
-28.13775429656515
 30
0.0
 10
250.2493348357157
 20
-22.06262205028396
 30
0.0
 10
255.1742025866842
 20
-17.13775429931508
 30
0.0
 10
261.2493348329651
 20
-17.13775429931508
 30
0.0
 10
267.3244670792466
 20
-17.13775429931508
 30
0.0
 10
272.2493348302152
 20
-22.06262205028396
 30
0.0
 10
272.2493348302152
 20
-28.13775429656515
 30
0.0
  0
HATCH
  5
5C
330
1F
100
AcDbEntity
  8
Layer 2
 62
     7
420
 16776959
100
AcDbHatch
 10
0.0
 20
0.0
 30
0.0
210
0.0
220
0.0
230
1.0
  2
SOLID
 70
     1
 71
     0
 91
        1
 92
        1
 93
        1
 72
     4
 94
        3
 73
     0
 74
     1
 95
       17
 96
       13
 40
0.0
 40
0.0
 40
0.0
 40
0.0
 40
1.0
 40
1.0
 40
1.0
 40
2.0
 40
2.0
 40
2.0
 40
3.0
 40
3.0
 40
3.0
 40
4.0
 40
4.0
 40
4.0
 40
4.0
 10
272.2493348302152
 20
-28.13775429656515
 10
272.2493348302152
 20
-34.21288654284633
 10
267.3244670792466
 20
-39.13775429381489
 10
261.2493348329651
 20
-39.13775429381489
 10
255.1742025866842
 20
-39.13775429381489
 10
250.2493348357157
 20
-34.21288654284633
 10
250.2493348357157
 20
-28.13775429656515
 10
250.2493348357157
 20
-22.06262205028396
 10
255.1742025866842
 20
-17.13775429931508
 10
261.2493348329651
 20
-17.13775429931508
 10
267.3244670792466
 20
-17.13775429931508
 10
272.2493348302152
 20
-22.06262205028396
 10
272.2493348302152
 20
-28.13775429656515
 97
        0
 97
        0
 75
     2
 76
     1
 98
        0
  0
SPLINE
  5
5D
330
1F
100
AcDbEntity
  8
Layer 2
 62
   250
420
  2301728
370
    35
100
AcDbSpline
210
0.0
220
0.0
230
1.0
 70
    11
 71
     3
 72
    17
 73
    13
 74
     0
 42
0.0000000001
 43
0.0000000001
 12
1.0
 22
0.0
 32
0.0
 13
1.0
 23
0.0
 33
0.0
 40
0.0
 40
0.0
 40
0.0
 40
0.0
 40
1.0
 40
1.0
 40
1.0
 40
2.0
 40
2.0
 40
2.0
 40
3.0
 40
3.0
 40
3.0
 40
4.0
 40
4.0
 40
4.0
 40
4.0
 10
299.3330202694547
 20
-16.07942096624665
 30
0.0
 10
299.3330202694547
 20
-22.15455321252784
 30
0.0
 10
294.4081525184861
 20
-27.0794209634964
 30
0.0
 10
288.3330202722053
 20
-27.0794209634964
 30
0.0
 10
282.2578880259238
 20
-27.0794209634964
 30
0.0
 10
277.3330202749545
 20
-22.15455321252784
 30
0.0
 10
277.3330202749545
 20
-16.07942096624665
 30
0.0
 10
277.3330202749545
 20
-10.00428871996547
 30
0.0
 10
282.2578880259238
 20
-5.079420968996588
 30
0.0
 10
288.3330202722053
 20
-5.079420968996588
 30
0.0
 10
294.4081525184861
 20
-5.079420968996588
 30
0.0
 10
299.3330202694547
 20
-10.00428871996547
 30
0.0
 10
299.3330202694547
 20
-16.07942096624665
 30
0.0
  0
HATCH
  5
5E
330
1F
100
AcDbEntity
  8
Layer 2
 62
     7
420
 16776959
100
AcDbHatch
 10
0.0
 20
0.0
 30
0.0
210
0.0
220
0.0
230
1.0
  2
SOLID
 70
     1
 71
     0
 91
        1
 92
        1
 93
        1
 72
     4
 94
        3
 73
     0
 74
     1
 95
       17
 96
       13
 40
0.0
 40
0.0
 40
0.0
 40
0.0
 40
1.0
 40
1.0
 40
1.0
 40
2.0
 40
2.0
 40
2.0
 40
3.0
 40
3.0
 40
3.0
 40
4.0
 40
4.0
 40
4.0
 40
4.0
 10
299.3330202694547
 20
-16.07942096624665
 10
299.3330202694547
 20
-22.15455321252784
 10
294.4081525184861
 20
-27.0794209634964
 10
288.3330202722053
 20
-27.0794209634964
 10
282.2578880259238
 20
-27.0794209634964
 10
277.3330202749545
 20
-22.15455321252784
 10
277.3330202749545
 20
-16.07942096624665
 10
277.3330202749545
 20
-10.00428871996547
 10
282.2578880259238
 20
-5.079420968996588
 10
288.3330202722053
 20
-5.079420968996588
 10
294.4081525184861
 20
-5.079420968996588
 10
299.3330202694547
 20
-10.00428871996547
 10
299.3330202694547
 20
-16.07942096624665
 97
        0
 97
        0
 75
     2
 76
     1
 98
        0
  0
SPLINE
  5
5F
330
1F
100
AcDbEntity
  8
Layer 2
 62
   250
420
  2301728
370
    35
100
AcDbSpline
210
0.0
220
0.0
230
1.0
 70
    11
 71
     3
 72
    17
 73
    13
 74
     0
 42
0.0000000001
 43
0.0000000001
 12
1.0
 22
0.0
 32
0.0
 13
1.0
 23
0.0
 33
0.0
 40
0.0
 40
0.0
 40
0.0
 40
0.0
 40
1.0
 40
1.0
 40
1.0
 40
2.0
 40
2.0
 40
2.0
 40
3.0
 40
3.0
 40
3.0
 40
4.0
 40
4.0
 40
4.0
 40
4.0
 10
299.3330202694547
 20
-44.18169012980008
 30
0.0
 10
299.3330202694547
 20
-50.25682237608127
 30
0.0
 10
294.4081525184861
 20
-55.18169012704983
 30
0.0
 10
288.3330202722053
 20
-55.18169012704983
 30
0.0
 10
282.2578880259238
 20
-55.18169012704983
 30
0.0
 10
277.3330202749545
 20
-50.25682237608127
 30
0.0
 10
277.3330202749545
 20
-44.18169012980008
 30
0.0
 10
277.3330202749545
 20
-38.1065578835189
 30
0.0
 10
282.2578880259238
 20
-33.18169013255001
 30
0.0
 10
288.3330202722053
 20
-33.18169013255001
 30
0.0
 10
294.4081525184861
 20
-33.18169013255001
 30
0.0
 10
299.3330202694547
 20
-38.1065578835189
 30
0.0
 10
299.3330202694547
 20
-44.18169012980008
 30
0.0
  0
HATCH
  5
60
330
1F
100
AcDbEntity
  8
Layer 2
 62
     7
420
 16776959
100
AcDbHatch
 10
0.0
 20
0.0
 30
0.0
210
0.0
220
0.0
230
1.0
  2
SOLID
 70
     1
 71
     0
 91
        1
 92
        1
 93
        1
 72
     4
 94
        3
 73
     0
 74
     1
 95
       17
 96
       13
 40
0.0
 40
0.0
 40
0.0
 40
0.0
 40
1.0
 40
1.0
 40
1.0
 40
2.0
 40
2.0
 40
2.0
 40
3.0
 40
3.0
 40
3.0
 40
4.0
 40
4.0
 40
4.0
 40
4.0
 10
299.3330202694547
 20
-44.18169012980008
 10
299.3330202694547
 20
-50.25682237608127
 10
294.4081525184861
 20
-55.18169012704983
 10
288.3330202722053
 20
-55.18169012704983
 10
282.2578880259238
 20
-55.18169012704983
 10
277.3330202749545
 20
-50.25682237608127
 10
277.3330202749545
 20
-44.18169012980008
 10
277.3330202749545
 20
-38.1065578835189
 10
282.2578880259238
 20
-33.18169013255001
 10
288.3330202722053
 20
-33.18169013255001
 10
294.4081525184861
 20
-33.18169013255001
 10
299.3330202694547
 20
-38.1065578835189
 10
299.3330202694547
 20
-44.18169012980008
 97
        0
 97
        0
 75
     2
 76
     1
 98
        0
  0
SPLINE
  5
61
330
1F
100
AcDbEntity
  8
Layer 2
 62
   250
420
  2301728
370
    35
100
AcDbSpline
210
0.0
220
0.0
230
1.0
 70
    11
 71
     3
 72
    17
 73
    13
 74
     0
 42
0.0000000001
 43
0.0000000001
 12
1.0
 22
0.0
 32
0.0
 13
1.0
 23
0.0
 33
0.0
 40
0.0
 40
0.0
 40
0.0
 40
0.0
 40
1.0
 40
1.0
 40
1.0
 40
2.0
 40
2.0
 40
2.0
 40
3.0
 40
3.0
 40
3.0
 40
4.0
 40
4.0
 40
4.0
 40
4.0
 10
328.7484349725859
 20
-47.26725350931041
 30
0.0
 10
328.7484349725859
 20
-53.3423857555916
 30
0.0
 10
323.8235672216173
 20
-58.26725350656016
 30
0.0
 10
317.7484349753365
 20
-58.26725350656016
 30
0.0
 10
311.673302729055
 20
-58.26725350656016
 30
0.0
 10
306.7484349780858
 20
-53.3423857555916
 30
0.0
 10
306.7484349780858
 20
-47.26725350931041
 30
0.0
 10
306.7484349780858
 20
-41.19212126302923
 30
0.0
 10
311.673302729055
 20
-36.26725351206035
 30
0.0
 10
317.7484349753365
 20
-36.26725351206035
 30
0.0
 10
323.8235672216173
 20
-36.26725351206035
 30
0.0
 10
328.7484349725859
 20
-41.19212126302923
 30
0.0
 10
328.7484349725859
 20
-47.26725350931041
 30
0.0
  0
HATCH
  5
62
330
1F
100
AcDbEntity
  8
Layer 2
 62
     7
420
 16776959
100
AcDbHatch
 10
0.0
 20
0.0
 30
0.0
210
0.0
220
0.0
230
1.0
  2
SOLID
 70
     1
 71
     0
 91
        1
 92
        1
 93
        1
 72
     4
 94
        3
 73
     0
 74
     1
 95
       17
 96
       13
 40
0.0
 40
0.0
 40
0.0
 40
0.0
 40
1.0
 40
1.0
 40
1.0
 40
2.0
 40
2.0
 40
2.0
 40
3.0
 40
3.0
 40
3.0
 40
4.0
 40
4.0
 40
4.0
 40
4.0
 10
328.7484349725859
 20
-47.26725350931041
 10
328.7484349725859
 20
-53.3423857555916
 10
323.8235672216173
 20
-58.26725350656016
 10
317.7484349753365
 20
-58.26725350656016
 10
311.673302729055
 20
-58.26725350656016
 10
306.7484349780858
 20
-53.3423857555916
 10
306.7484349780858
 20
-47.26725350931041
 10
306.7484349780858
 20
-41.19212126302923
 10
311.673302729055
 20
-36.26725351206035
 10
317.7484349753365
 20
-36.26725351206035
 10
323.8235672216173
 20
-36.26725351206035
 10
328.7484349725859
 20
-41.19212126302923
 10
328.7484349725859
 20
-47.26725350931041
 97
        0
 97
        0
 75
     2
 76
     1
 98
        0
  0
SPLINE
  5
63
330
1F
100
AcDbEntity
  8
Layer 2
 62
   250
420
  2301728
370
    35
100
AcDbSpline
210
0.0
220
0.0
230
1.0
 70
    11
 71
     3
 72
    17
 73
    13
 74
     0
 42
0.0000000001
 43
0.0000000001
 12
1.0
 22
0.0
 32
0.0
 13
1.0
 23
0.0
 33
0.0
 40
0.0
 40
0.0
 40
0.0
 40
0.0
 40
1.0
 40
1.0
 40
1.0
 40
2.0
 40
2.0
 40
2.0
 40
3.0
 40
3.0
 40
3.0
 40
4.0
 40
4.0
 40
4.0
 40
4.0
 10
328.7484349725859
 20
-19.1543427182166
 30
0.0
 10
328.7484349725859
 20
-25.22947496449779
 30
0.0
 10
323.8235672216173
 20
-30.15434271546635
 30
0.0
 10
317.7484349753365
 20
-30.15434271546635
 30
0.0
 10
311.673302729055
 20
-30.15434271546635
 30
0.0
 10
306.7484349780858
 20
-25.22947496449779
 30
0.0
 10
306.7484349780858
 20
-19.1543427182166
 30
0.0
 10
306.7484349780858
 20
-13.07921047193542
 30
0.0
 10
311.673302729055
 20
-8.154342720966536
 30
0.0
 10
317.7484349753365
 20
-8.154342720966536
 30
0.0
 10
323.8235672216173
 20
-8.154342720966536
 30
0.0
 10
328.7484349725859
 20
-13.07921047193542
 30
0.0
 10
328.7484349725859
 20
-19.1543427182166
 30
0.0
  0
HATCH
  5
64
330
1F
100
AcDbEntity
  8
Layer 2
 62
     7
420
 16776959
100
AcDbHatch
 10
0.0
 20
0.0
 30
0.0
210
0.0
220
0.0
230
1.0
  2
SOLID
 70
     1
 71
     0
 91
        1
 92
        1
 93
        1
 72
     4
 94
        3
 73
     0
 74
     1
 95
       17
 96
       13
 40
0.0
 40
0.0
 40
0.0
 40
0.0
 40
1.0
 40
1.0
 40
1.0
 40
2.0
 40
2.0
 40
2.0
 40
3.0
 40
3.0
 40
3.0
 40
4.0
 40
4.0
 40
4.0
 40
4.0
 10
328.7484349725859
 20
-19.1543427182166
 10
328.7484349725859
 20
-25.22947496449779
 10
323.8235672216173
 20
-30.15434271546635
 10
317.7484349753365
 20
-30.15434271546635
 10
311.673302729055
 20
-30.15434271546635
 10
306.7484349780858
 20
-25.22947496449779
 10
306.7484349780858
 20
-19.1543427182166
 10
306.7484349780858
 20
-13.07921047193542
 10
311.673302729055
 20
-8.154342720966536
 10
317.7484349753365
 20
-8.154342720966536
 10
323.8235672216173
 20
-8.154342720966536
 10
328.7484349725859
 20
-13.07921047193542
 10
328.7484349725859
 20
-19.1543427182166
 97
        0
 97
        0
 75
     2
 76
     1
 98
        0
  0
SPLINE
  5
65
330
1F
100
AcDbEntity
  8
Layer 2
 62
   250
420
  2301728
370
    35
100
AcDbSpline
210
0.0
220
0.0
230
1.0
 70
    11
 71
     3
 72
    17
 73
    13
 74
     0
 42
0.0000000001
 43
0.0000000001
 12
1.0
 22
0.0
 32
0.0
 13
1.0
 23
0.0
 33
0.0
 40
0.0
 40
0.0
 40
0.0
 40
0.0
 40
1.0
 40
1.0
 40
1.0
 40
2.0
 40
2.0
 40
2.0
 40
3.0
 40
3.0
 40
3.0
 40
4.0
 40
4.0
 40
4.0
 40
4.0
 10
355.3061423211887
 20
-35.56169795668151
 30
0.0
 10
355.3061423211887
 20
-41.63683020296269
 30
0.0
 10
350.3812745702201
 20
-46.56169795393125
 30
0.0
 10
344.3061423239393
 20
-46.56169795393125
 30
0.0
 10
338.2310100776577
 20
-46.56169795393125
 30
0.0
 10
333.3061423266886
 20
-41.63683020296269
 30
0.0
 10
333.3061423266886
 20
-35.56169795668151
 30
0.0
 10
333.3061423266886
 20
-29.48656571040032
 30
0.0
 10
338.2310100776577
 20
-24.56169795943144
 30
0.0
 10
344.3061423239393
 20
-24.56169795943144
 30
0.0
 10
350.3812745702201
 20
-24.56169795943144
 30
0.0
 10
355.3061423211887
 20
-29.48656571040032
 30
0.0
 10
355.3061423211887
 20
-35.56169795668151
 30
0.0
  0
HATCH
  5
66
330
1F
100
AcDbEntity
  8
Layer 2
 62
     7
420
 16776959
100
AcDbHatch
 10
0.0
 20
0.0
 30
0.0
210
0.0
220
0.0
230
1.0
  2
SOLID
 70
     1
 71
     0
 91
        1
 92
        1
 93
        1
 72
     4
 94
        3
 73
     0
 74
     1
 95
       17
 96
       13
 40
0.0
 40
0.0
 40
0.0
 40
0.0
 40
1.0
 40
1.0
 40
1.0
 40
2.0
 40
2.0
 40
2.0
 40
3.0
 40
3.0
 40
3.0
 40
4.0
 40
4.0
 40
4.0
 40
4.0
 10
355.3061423211887
 20
-35.56169795668151
 10
355.3061423211887
 20
-41.63683020296269
 10
350.3812745702201
 20
-46.56169795393125
 10
344.3061423239393
 20
-46.56169795393125
 10
338.2310100776577
 20
-46.56169795393125
 10
333.3061423266886
 20
-41.63683020296269
 10
333.3061423266886
 20
-35.56169795668151
 10
333.3061423266886
 20
-29.48656571040032
 10
338.2310100776577
 20
-24.56169795943144
 10
344.3061423239393
 20
-24.56169795943144
 10
350.3812745702201
 20
-24.56169795943144
 10
355.3061423211887
 20
-29.48656571040032
 10
355.3061423211887
 20
-35.56169795668151
 97
        0
 97
        0
 75
     2
 76
     1
 98
        0
  0
SPLINE
  5
67
330
1F
100
AcDbEntity
  8
Layer 2
 62
   250
420
  2301728
370
    35
100
AcDbSpline
210
0.0
220
0.0
230
1.0
 70
    11
 71
     3
 72
    17
 73
    13
 74
     0
 42
0.0000000001
 43
0.0000000001
 12
1.0
 22
0.0
 32
0.0
 13
1.0
 23
0.0
 33
0.0
 40
0.0
 40
0.0
 40
0.0
 40
0.0
 40
1.0
 40
1.0
 40
1.0
 40
2.0
 40
2.0
 40
2.0
 40
3.0
 40
3.0
 40
3.0
 40
4.0
 40
4.0
 40
4.0
 40
4.0
 10
355.3061423211887
 20
-63.72856023445919
 30
0.0
 10
355.3061423211887
 20
-69.80369248074037
 30
0.0
 10
350.3812745702201
 20
-74.72856023170893
 30
0.0
 10
344.3061423239393
 20
-74.72856023170893
 30
0.0
 10
338.2310100776577
 20
-74.72856023170893
 30
0.0
 10
333.3061423266886
 20
-69.80369248074037
 30
0.0
 10
333.3061423266886
 20
-63.72856023445919
 30
0.0
 10
333.3061423266886
 20
-57.653427988178
 30
0.0
 10
338.2310100776577
 20
-52.72856023720912
 30
0.0
 10
344.3061423239393
 20
-52.72856023720912
 30
0.0
 10
350.3812745702201
 20
-52.72856023720912
 30
0.0
 10
355.3061423211887
 20
-57.653427988178
 30
0.0
 10
355.3061423211887
 20
-63.72856023445919
 30
0.0
  0
HATCH
  5
68
330
1F
100
AcDbEntity
  8
Layer 2
 62
     7
420
 16776959
100
AcDbHatch
 10
0.0
 20
0.0
 30
0.0
210
0.0
220
0.0
230
1.0
  2
SOLID
 70
     1
 71
     0
 91
        1
 92
        1
 93
        1
 72
     4
 94
        3
 73
     0
 74
     1
 95
       17
 96
       13
 40
0.0
 40
0.0
 40
0.0
 40
0.0
 40
1.0
 40
1.0
 40
1.0
 40
2.0
 40
2.0
 40
2.0
 40
3.0
 40
3.0
 40
3.0
 40
4.0
 40
4.0
 40
4.0
 40
4.0
 10
355.3061423211887
 20
-63.72856023445919
 10
355.3061423211887
 20
-69.80369248074037
 10
350.3812745702201
 20
-74.72856023170893
 10
344.3061423239393
 20
-74.72856023170893
 10
338.2310100776577
 20
-74.72856023170893
 10
333.3061423266886
 20
-69.80369248074037
 10
333.3061423266886
 20
-63.72856023445919
 10
333.3061423266886
 20
-57.653427988178
 10
338.2310100776577
 20
-52.72856023720912
 10
344.3061423239393
 20
-52.72856023720912
 10
350.3812745702201
 20
-52.72856023720912
 10
355.3061423211887
 20
-57.653427988178
 10
355.3061423211887
 20
-63.72856023445919
 97
        0
 97
        0
 75
     2
 76
     1
 98
        0
  0
ENDSEC
  0
SECTION
  2
OBJECTS
  0
DICTIONARY
  5
C
330
0
100
AcDbDictionary
281
     1
  3
ACAD_GROUP
350
D
  3
ACAD_LAYOUT
350
1A
  3
ACAD_MATERIAL
350
3B
  3
ACAD_MLEADERSTYLE
350
6A
  3
ACAD_MLINESTYLE
350
17
  3
ACAD_PLOTSETTINGS
350
19
  3
ACAD_PLOTSTYLENAME
350
E
  3
ACAD_TABLESTYLE
350
69
  3
ACAD_VISUALSTYLE
350
2A
  0
SUN
  5
3F
330
29
100
AcDbSun
 90
        1
290
     0
 63
     7
421
 16777215
 40
1.0
291
     1
 91
  2455826
 92
 54000000
292
     0
 70
     2
 71
   256
280
     1
  0
DICTIONARY
  5
D
102
{ACAD_REACTORS
330
C
102
}
330
C
100
AcDbDictionary
281
     1
  0
DICTIONARY
  5
1A
102
{ACAD_REACTORS
330
C
102
}
330
C
100
AcDbDictionary
281
     1
  3
Layout1
350
1E
  3
Layout2
350
26
  3
Model
350
22
  0
DICTIONARY
  5
3B
102
{ACAD_REACTORS
330
C
102
}
330
C
100
AcDbDictionary
281
     1
  3
ByBlock
350
3D
  3
ByLayer
350
3C
  3
Global
350
3E
  0
DICTIONARY
  5
6A
102
{ACAD_REACTORS
330
C
102
}
330
C
100
AcDbDictionary
281
     1
  0
DICTIONARY
  5
17
102
{ACAD_REACTORS
330
C
102
}
330
C
100
AcDbDictionary
281
     1
  3
Standard
350
18
  0
DICTIONARY
  5
19
102
{ACAD_REACTORS
330
C
102
}
330
C
100
AcDbDictionary
281
     1
  0
ACDBDICTIONARYWDFLT
  5
E
102
{ACAD_REACTORS
330
C
102
}
330
C
100
AcDbDictionary
281
     1
  3
Normal
350
F
100
AcDbDictionaryWithDefault
340
F
  0
DICTIONARY
  5
69
102
{ACAD_REACTORS
330
C
102
}
330
C
100
AcDbDictionary
281
     1
  0
DICTIONARY
  5
2A
102
{ACAD_REACTORS
330
C
102
}
330
C
100
AcDbDictionary
281
     1
  3
2dWireframe
350
2F
  3
3D Hidden
350
31
  3
3dWireframe
350
30
  3
Basic
350
32
  3
Brighten
350
36
  3
ColorChange
350
3A
  3
Conceptual
350
34
  3
Dim
350
35
  3
Facepattern
350
39
  3
Flat
350
2B
  3
FlatWithEdges
350
2C
  3
Gouraud
350
2D
  3
GouraudWithEdges
350
2E
  3
Linepattern
350
38
  3
Realistic
350
33
  3
Thicken
350
37
  0
LAYOUT
  5
1E
102
{ACAD_REACTORS
330
1A
102
}
330
1A
100
AcDbPlotSettings
  1

  2
none_device
  4

  6

 40
0.0
 41
0.0
 42
0.0
 43
0.0
 44
0.0
 45
0.0
 46
0.0
 47
0.0
 48
0.0
 49
0.0
140
0.0
141
0.0
142
1.0
143
1.0
 70
   688
 72
     0
 73
     0
 74
     5
  7

 75
    16
 76
     0
 77
     2
 78
   300
147
1.0
148
0.0
149
0.0
100
AcDbLayout
  1
Layout1
 70
     1
 71
     1
 10
0.0
 20
0.0
 11
12.0
 21
9.0
 12
0.0
 22
0.0
 32
0.0
 14
1.000000000000000E+20
 24
1.000000000000000E+20
 34
1.000000000000000E+20
 15
-1.000000000000000E+20
 25
-1.000000000000000E+20
 35
-1.000000000000000E+20
146
0.0
 13
0.0
 23
0.0
 33
0.0
 16
1.0
 26
0.0
 36
0.0
 17
0.0
 27
1.0
 37
0.0
 76
     0
330
1B
  0
LAYOUT
  5
26
102
{ACAD_REACTORS
330
1A
102
}
330
1A
100
AcDbPlotSettings
  1

  2
none_device
  4

  6

 40
0.0
 41
0.0
 42
0.0
 43
0.0
 44
0.0
 45
0.0
 46
0.0
 47
0.0
 48
0.0
 49
0.0
140
0.0
141
0.0
142
1.0
143
1.0
 70
   688
 72
     0
 73
     0
 74
     5
  7

 75
    16
 76
     0
 77
     2
 78
   300
147
1.0
148
0.0
149
0.0
100
AcDbLayout
  1
Layout2
 70
     1
 71
     2
 10
0.0
 20
0.0
 11
0.0
 21
0.0
 12
0.0
 22
0.0
 32
0.0
 14
0.0
 24
0.0
 34
0.0
 15
0.0
 25
0.0
 35
0.0
146
0.0
 13
0.0
 23
0.0
 33
0.0
 16
1.0
 26
0.0
 36
0.0
 17
0.0
 27
1.0
 37
0.0
 76
     0
330
23
  0
LAYOUT
  5
22
102
{ACAD_REACTORS
330
1A
102
}
330
1A
100
AcDbPlotSettings
  1

  2
none_device
  4

  6

 40
0.0
 41
0.0
 42
0.0
 43
0.0
 44
0.0
 45
0.0
 46
0.0
 47
0.0
 48
0.0
 49
0.0
140
0.0
141
0.0
142
1.0
143
1.0
 70
  1712
 72
     0
 73
     0
 74
     0
  7

 75
     0
 76
     0
 77
     2
 78
   300
147
1.0
148
0.0
149
0.0
100
AcDbLayout
  1
Model
 70
     1
 71
     0
 10
0.0
 20
0.0
 11
12.0
 21
9.0
 12
0.0
 22
0.0
 32
0.0
 14
1.000000000000000E+20
 24
1.000000000000000E+20
 34
1.000000000000000E+20
 15
-1.000000000000000E+20
 25
-1.000000000000000E+20
 35
-1.000000000000000E+20
146
0.0
 13
0.0
 23
0.0
 33
0.0
 16
1.0
 26
0.0
 36
0.0
 17
0.0
 27
1.0
 37
0.0
 76
     0
330
1F
331
29
  0
MATERIAL
  5
3D
102
{ACAD_REACTORS
330
3B
102
}
330
3B
100
AcDbMaterial
  1
ByBlock
 72
     1
 94
      127
  0
MATERIAL
  5
3C
102
{ACAD_REACTORS
330
3B
102
}
330
3B
100
AcDbMaterial
  1
ByLayer
 72
     1
 94
      127
  0
MATERIAL
  5
3E
102
{ACAD_REACTORS
330
3B
102
}
330
3B
100
AcDbMaterial
  1
Global
 72
     1
 94
      127
  0
MLINESTYLE
  5
18
102
{ACAD_REACTORS
330
17
102
}
330
17
100
AcDbMlineStyle
  2
Standard
 70
     0
  3

 62
   256
 51
90.0
 52
90.0
 71
     2
 49
0.5
 62
   256
  6
BYLAYER
 49
-0.5
 62
   256
  6
BYLAYER
  0
ACDBPLACEHOLDER
  5
F
102
{ACAD_REACTORS
330
E
102
}
330
E
  0
VISUALSTYLE
  5
2F
102
{ACAD_REACTORS
330
2A
102
}
330
2A
100
AcDbVisualStyle
  2
2dWireframe
 70
     4
177
     2
291
     0
 71
     0
176
     1
 72
     2
176
     1
 73
     0
176
     1
 90
        0
176
     1
 40
-0.6
176
     1
 41
-30.0
176
     1
 62
     5
 63
     7
421
 16777215
176
     1
 74
     1
176
     1
 91
        4
176
     1
 64
     7
176
     1
 65
   257
176
     1
 75
     1
176
     1
175
     1
176
     1
 42
1.0
176
     1
 92
        0
176
     1
 66
   257
176
     1
 43
1.0
176
     1
 76
     1
176
     1
 77
     6
176
     1
 78
     2
176
     1
 67
     7
176
     1
 79
     5
176
     1
170
     0
176
     1
171
     0
176
     1
290
     0
176
     1
 93
        1
176
     1
 44
0.0
176
     1
173
     0
176
     1
  0
VISUALSTYLE
  5
31
102
{ACAD_REACTORS
330
2A
102
}
330
2A
100
AcDbVisualStyle
  2
3D Hidden
 70
     6
177
     2
291
     0
 71
     1
176
     1
 72
     2
176
     1
 73
     2
176
     1
 90
        0
176
     1
 40
-0.6
176
     1
 41
-30.0
176
     1
 62
     5
 63
     7
421
 16777215
176
     1
 74
     2
176
     1
 91
        2
176
     1
 64
     7
176
     1
 65
   257
176
     1
 75
     2
176
     1
175
     1
176
     1
 42
40.0
176
     1
 92
        0
176
     1
 66
   257
176
     1
 43
1.0
176
     1
 76
     1
176
     1
 77
     6
176
     1
 78
     2
176
     1
 67
     7
176
     1
 79
     3
176
     1
170
     0
176
     1
171
     0
176
     1
290
     0
176
     1
 93
        1
176
     1
 44
0.0
176
     1
173
     0
176
     1
  0
VISUALSTYLE
  5
30
102
{ACAD_REACTORS
330
2A
102
}
330
2A
100
AcDbVisualStyle
  2
3dWireframe
 70
     5
177
     2
291
     0
 71
     0
176
     1
 72
     2
176
     1
 73
     0
176
     1
 90
        0
176
     1
 40
-0.6
176
     1
 41
-30.0
176
     1
 62
     5
 63
     7
421
 16777215
176
     1
 74
     1
176
     1
 91
        4
176
     1
 64
     7
176
     1
 65
   257
176
     1
 75
     1
176
     1
175
     1
176
     1
 42
1.0
176
     1
 92
        0
176
     1
 66
   257
176
     1
 43
1.0
176
     1
 76
     1
176
     1
 77
     6
176
     1
 78
     2
176
     1
 67
     7
176
     1
 79
     5
176
     1
170
     0
176
     1
171
     0
176
     1
290
     0
176
     1
 93
        1
176
     1
 44
0.0
176
     1
173
     0
176
     1
  0
VISUALSTYLE
  5
32
102
{ACAD_REACTORS
330
2A
102
}
330
2A
100
AcDbVisualStyle
  2
Basic
 70
     7
177
     2
291
     1
 71
     1
176
     1
 72
     0
176
     1
 73
     1
176
     1
 90
        0
176
     1
 40
-0.6
176
     1
 41
-30.0
176
     1
 62
     5
 63
     7
421
 16777215
176
     1
 74
     0
176
     1
 91
        4
176
     1
 64
     7
176
     1
 65
   257
176
     1
 75
     1
176
     1
175
     1
176
     1
 42
1.0
176
     1
 92
        8
176
     1
 66
     7
176
     1
 43
1.0
176
     1
 76
     1
176
     1
 77
     6
176
     1
 78
     2
176
     1
 67
     7
176
     1
 79
     5
176
     1
170
     0
176
     1
171
     0
176
     1
290
     0
176
     1
 93
        1
176
     1
 44
0.0
176
     1
173
     0
176
     1
  0
VISUALSTYLE
  5
36
102
{ACAD_REACTORS
330
2A
102
}
330
2A
100
AcDbVisualStyle
  2
Brighten
 70
    12
177
     2
291
     1
 71
     2
176
     1
 72
     2
176
     1
 73
     0
176
     1
 90
        0
176
     1
 40
-0.6
176
     1
 41
-30.0
176
     1
 62
     5
 63
     7
421
 16777215
176
     1
 74
     1
176
     1
 91
        4
176
     1
 64
     7
176
     1
 65
   257
176
     1
 75
     1
176
     1
175
     1
176
     1
 42
1.0
176
     1
 92
        8
176
     1
 66
     7
176
     1
 43
1.0
176
     1
 76
     1
176
     1
 77
     6
176
     1
 78
     2
176
     1
 67
     7
176
     1
 79
     5
176
     1
170
     0
176
     1
171
     0
176
     1
290
     0
176
     1
 93
        1
176
     1
 44
50.0
176
     1
173
     0
176
     1
  0
VISUALSTYLE
  5
3A
102
{ACAD_REACTORS
330
2A
102
}
330
2A
100
AcDbVisualStyle
  2
ColorChange
 70
    16
177
     2
291
     1
 71
     2
176
     1
 72
     2
176
     1
 73
     3
176
     1
 90
        0
176
     1
 40
-0.6
176
     1
 41
-30.0
176
     1
 62
     5
 63
     8
421
  8421504
176
     1
 74
     1
176
     1
 91
        4
176
     1
 64
     7
176
     1
 65
   257
176
     1
 75
     1
176
     1
175
     1
176
     1
 42
1.0
176
     1
 92
        8
176
     1
 66
     8
424
  8421504
176
     1
 43
1.0
176
     1
 76
     1
176
     1
 77
     6
176
     1
 78
     2
176
     1
 67
     7
176
     1
 79
     5
176
     1
170
     0
176
     1
171
     0
176
     1
290
     0
176
     1
 93
        1
176
     1
 44
0.0
176
     1
173
     0
176
     1
  0
VISUALSTYLE
  5
34
102
{ACAD_REACTORS
330
2A
102
}
330
2A
100
AcDbVisualStyle
  2
Conceptual
 70
     9
177
     2
291
     0
 71
     3
176
     1
 72
     2
176
     1
 73
     0
176
     1
 90
        0
176
     1
 40
-0.6
176
     1
 41
-30.0
176
     1
 62
     5
 63
     7
421
 16777215
176
     1
 74
     2
176
     1
 91
        2
176
     1
 64
     7
176
     1
 65
   257
176
     1
 75
     1
176
     1
175
     1
176
     1
 42
40.0
176
     1
 92
        8
176
     1
 66
     7
176
     1
 43
1.0
176
     1
 76
     1
176
     1
 77
     6
176
     1
 78
     2
176
     1
 67
     7
176
     1
 79
     3
176
     1
170
     0
176
     1
171
     0
176
     1
290
     0
176
     1
 93
        1
176
     1
 44
0.0
176
     1
173
     0
176
     1
  0
VISUALSTYLE
  5
35
102
{ACAD_REACTORS
330
2A
102
}
330
2A
100
AcDbVisualStyle
  2
Dim
 70
    11
177
     2
291
     1
 71
     2
176
     1
 72
     2
176
     1
 73
     0
176
     1
 90
        0
176
     1
 40
-0.6
176
     1
 41
-30.0
176
     1
 62
     5
 63
     7
421
 16777215
176
     1
 74
     1
176
     1
 91
        4
176
     1
 64
     7
176
     1
 65
   257
176
     1
 75
     1
176
     1
175
     1
176
     1
 42
1.0
176
     1
 92
        8
176
     1
 66
     7
176
     1
 43
1.0
176
     1
 76
     1
176
     1
 77
     6
176
     1
 78
     2
176
     1
 67
     7
176
     1
 79
     5
176
     1
170
     0
176
     1
171
     0
176
     1
290
     0
176
     1
 93
        1
176
     1
 44
-50.0
176
     1
173
     0
176
     1
  0
VISUALSTYLE
  5
39
102
{ACAD_REACTORS
330
2A
102
}
330
2A
100
AcDbVisualStyle
  2
Facepattern
 70
    15
177
     2
291
     1
 71
     2
176
     1
 72
     2
176
     1
 73
     0
176
     1
 90
        0
176
     1
 40
-0.6
176
     1
 41
-30.0
176
     1
 62
     5
 63
     7
421
 16777215
176
     1
 74
     1
176
     1
 91
        4
176
     1
 64
     7
176
     1
 65
   257
176
     1
 75
     1
176
     1
175
     1
176
     1
 42
1.0
176
     1
 92
        8
176
     1
 66
     7
176
     1
 43
1.0
176
     1
 76
     1
176
     1
 77
     6
176
     1
 78
     2
176
     1
 67
     7
176
     1
 79
     5
176
     1
170
     0
176
     1
171
     0
176
     1
290
     0
176
     1
 93
        1
176
     1
 44
0.0
176
     1
173
     0
176
     1
  0
VISUALSTYLE
  5
2B
102
{ACAD_REACTORS
330
2A
102
}
330
2A
100
AcDbVisualStyle
  2
Flat
 70
     0
177
     2
291
     1
 71
     2
176
     1
 72
     1
176
     1
 73
     1
176
     1
 90
        2
176
     1
 40
-0.6
176
     1
 41
30.0
176
     1
 62
     5
 63
     7
421
 16777215
176
     1
 74
     0
176
     1
 91
        4
176
     1
 64
     7
176
     1
 65
   257
176
     1
 75
     1
176
     1
175
     1
176
     1
 42
1.0
176
     1
 92
        8
176
     1
 66
     7
176
     1
 43
1.0
176
     1
 76
     1
176
     1
 77
     6
176
     1
 78
     2
176
     1
 67
     7
176
     1
 79
     5
176
     1
170
     0
176
     1
171
     0
176
     1
290
     0
176
     1
 93
       13
176
     1
 44
0.0
176
     1
173
     0
176
     1
  0
VISUALSTYLE
  5
2C
102
{ACAD_REACTORS
330
2A
102
}
330
2A
100
AcDbVisualStyle
  2
FlatWithEdges
 70
     1
177
     2
291
     1
 71
     2
176
     1
 72
     1
176
     1
 73
     1
176
     1
 90
        2
176
     1
 40
-0.6
176
     1
 41
30.0
176
     1
 62
     5
 63
     7
421
 16777215
176
     1
 74
     1
176
     1
 91
        4
176
     1
 64
     7
176
     1
 65
   257
176
     1
 75
     1
176
     1
175
     1
176
     1
 42
1.0
176
     1
 92
        0
176
     1
 66
   257
176
     1
 43
1.0
176
     1
 76
     1
176
     1
 77
     6
176
     1
 78
     2
176
     1
 67
     7
176
     1
 79
     5
176
     1
170
     0
176
     1
171
     0
176
     1
290
     0
176
     1
 93
       13
176
     1
 44
0.0
176
     1
173
     0
176
     1
  0
VISUALSTYLE
  5
2D
102
{ACAD_REACTORS
330
2A
102
}
330
2A
100
AcDbVisualStyle
  2
Gouraud
 70
     2
177
     2
291
     1
 71
     2
176
     1
 72
     2
176
     1
 73
     1
176
     1
 90
        2
176
     1
 40
-0.6
176
     1
 41
30.0
176
     1
 62
     5
 63
     7
421
 16777215
176
     1
 74
     0
176
     1
 91
        4
176
     1
 64
     7
176
     1
 65
   257
176
     1
 75
     1
176
     1
175
     1
176
     1
 42
1.0
176
     1
 92
        0
176
     1
 66
     7
176
     1
 43
1.0
176
     1
 76
     1
176
     1
 77
     6
176
     1
 78
     2
176
     1
 67
     7
176
     1
 79
     5
176
     1
170
     0
176
     1
171
     0
176
     1
290
     0
176
     1
 93
       13
176
     1
 44
0.0
176
     1
173
     0
176
     1
  0
VISUALSTYLE
  5
2E
102
{ACAD_REACTORS
330
2A
102
}
330
2A
100
AcDbVisualStyle
  2
GouraudWithEdges
 70
     3
177
     2
291
     1
 71
     2
176
     1
 72
     2
176
     1
 73
     1
176
     1
 90
        2
176
     1
 40
-0.6
176
     1
 41
30.0
176
     1
 62
     5
 63
     7
421
 16777215
176
     1
 74
     1
176
     1
 91
        4
176
     1
 64
     7
176
     1
 65
   257
176
     1
 75
     1
176
     1
175
     1
176
     1
 42
1.0
176
     1
 92
        0
176
     1
 66
   257
176
     1
 43
1.0
176
     1
 76
     1
176
     1
 77
     6
176
     1
 78
     2
176
     1
 67
     7
176
     1
 79
     5
176
     1
170
     0
176
     1
171
     0
176
     1
290
     0
176
     1
 93
       13
176
     1
 44
0.0
176
     1
173
     0
176
     1
  0
VISUALSTYLE
  5
38
102
{ACAD_REACTORS
330
2A
102
}
330
2A
100
AcDbVisualStyle
  2
Linepattern
 70
    14
177
     2
291
     1
 71
     2
176
     1
 72
     2
176
     1
 73
     0
176
     1
 90
        0
176
     1
 40
-0.6
176
     1
 41
-30.0
176
     1
 62
     5
 63
     7
421
 16777215
176
     1
 74
     1
176
     1
 91
        4
176
     1
 64
     7
176
     1
 65
   257
176
     1
 75
     7
176
     1
175
     7
176
     1
 42
1.0
176
     1
 92
        8
176
     1
 66
     7
176
     1
 43
1.0
176
     1
 76
     1
176
     1
 77
     6
176
     1
 78
     2
176
     1
 67
     7
176
     1
 79
     5
176
     1
170
     0
176
     1
171
     0
176
     1
290
     0
176
     1
 93
        1
176
     1
 44
0.0
176
     1
173
     0
176
     1
  0
VISUALSTYLE
  5
33
102
{ACAD_REACTORS
330
2A
102
}
330
2A
100
AcDbVisualStyle
  2
Realistic
 70
     8
177
     2
291
     0
 71
     2
176
     1
 72
     2
176
     1
 73
     0
176
     1
 90
        0
176
     1
 40
-0.6
176
     1
 41
-30.0
176
     1
 62
     5
 63
     7
421
 16777215
176
     1
 74
     1
176
     1
 91
        0
176
     1
 64
     7
176
     1
 65
   257
176
     1
 75
     1
176
     1
175
     1
176
     1
 42
1.0
176
     1
 92
        8
176
     1
 66
     8
424
  7895160
176
     1
 43
1.0
176
     1
 76
     1
176
     1
 77
     6
176
     1
 78
     2
176
     1
 67
     7
176
     1
 79
     5
176
     1
170
     0
176
     1
171
     0
176
     1
290
     0
176
     1
 93
       13
176
     1
 44
0.0
176
     1
173
     0
176
     1
  0
VISUALSTYLE
  5
37
102
{ACAD_REACTORS
330
2A
102
}
330
2A
100
AcDbVisualStyle
  2
Thicken
 70
    13
177
     2
291
     1
 71
     2
176
     1
 72
     2
176
     1
 73
     0
176
     1
 90
        0
176
     1
 40
-0.6
176
     1
 41
-30.0
176
     1
 62
     5
 63
     7
421
 16777215
176
     1
 74
     1
176
     1
 91
        4
176
     1
 64
     7
176
     1
 65
   257
176
     1
 75
     1
176
     1
175
     1
176
     1
 42
1.0
176
     1
 92
       12
176
     1
 66
     7
176
     1
 43
1.0
176
     1
 76
     1
176
     1
 77
     6
176
     1
 78
     2
176
     1
 67
     7
176
     1
 79
     5
176
     1
170
     0
176
     1
171
     0
176
     1
290
     0
176
     1
 93
        1
176
     1
 44
0.0
176
     1
173
     0
176
     1
  0
ENDSEC
  0
EOF
