0
SECTION
2
HEADER
9
$INSUNITS
70
4
9
$ACADVER
1
AC1014
9
$HANDSEED
5
FFFF
0
ENDSEC
0
SECTION
2
TABLES
0
TABLE
2
VPORT
5
8
100
AcDbSymbolTable
0
ENDTAB
0
TABLE
2
LTYPE
5
5
100
AcDbSymbolTable
0
LTYPE
5
14
100
AcDbSymbolTableRecord
100
AcDbLinetypeTableRecord
2
BYBLOCK
70
0
0
LTYPE
5
15
100
AcDbSymbolTableRecord
100
AcDbLinetypeTableRecord
2
BYLAYER
70
0
0
ENDTAB
0
TABLE
2
LAYER
5
2
100
AcDbSymbolTable
70
2
0
LAYER
5
50
100
AcDbSymbolTableRecord
100
AcDbLayerTableRecord
2
0
70
0
6
CONTINUOUS
0
ENDTAB
0
TABLE
2
STYLE
5
3
100
AcDbSymbolTable
70
1
0
STYLE
5
11
100
AcDbSymbolTableRecord
100
AcDbTextStyleTableRecord
2
STANDARD
70
0
0
ENDTAB
0
TABLE
2
VIEW
5
6
100
AcDbSymbolTable
70
0
0
ENDTAB
0
TABLE
2
UCS
5
7
100
AcDbSymbolTable
70
0
0
ENDTAB
0
TABLE
2
APPID
5
9
100
AcDbSymbolTable
70
2
0
APPID
5
12
100
AcDbSymbolTableRecord
100
AcDbRegAppTableRecord
2
ACAD
70
0
0
ENDTAB
0
TABLE
2
DIMSTYLE
5
A
100
AcDbSymbolTable
70
1
0
ENDTAB
0
TABLE
2
BLOCK_RECORD
5
1
100
AcDbSymbolTable
70
1
0
BLOCK_RECORD
5
1F
100
AcDbSymbolTableRecord
100
AcDbBlockTableRecord
2
*MODEL_SPACE
0
BLOCK_RECORD
5
1B
100
AcDbSymbolTableRecord
100
AcDbBlockTableRecord
2
*PAPER_SPACE
0
ENDTAB
0
ENDSEC
0
SECTION
2
BLOCKS
0
BLOCK
5
20
100
AcDbEntity
100
AcDbBlockBegin
2
*MODEL_SPACE
0
ENDBLK
5
21
100
AcDbEntity
100
AcDbBlockEnd
0
BLOCK
5
1C
100
AcDbEntity
100
AcDbBlockBegin
2
*PAPER_SPACE
0
ENDBLK
5
1D
100
AcDbEntity
100
AcDbBlockEnd
0
ENDSEC
0
SECTION
2
ENTITIES
0
LWPOLYLINE
5
100
100
AcDbEntity
8
0
100
AcDbPolyline
90
8
70
1
43
0.0
10
-2.3869795029440862e-14
20
163.10000000000005
10
2.7755575615628914e-16
20
1.9999999999999931
42
0.41421356237309592
10
2.0000000000000284
20
8.3266726846886741e-16
10
358.68000000000001
20
-3.3306690738754696e-14
42
0.41421356237305307
10
360.68000000000006
20
1.9999999999999929
10
360.67999999999995
20
163.10000000000005
42
0.41421356237311063
10
358.67999999999995
20
165.09999999999994
10
1.9999999999999576
20
165.10000000000008
42
0.41421356237307905
0
LINE
5
101
100
AcDbEntity
8
0
100
AcDbLine
10
173.34147822469674
20
162.09971996626695
30
0
11
173.34147822469671
21
160.77888488275192
31
0
0
ARC
5
102
100
AcDbEntity
8
0
100
AcDbCircle
10
175.28234239894658
20
156.004109039816
30
0
40
5.1541670610459667
210
0
220
0
230
1
100
AcDbArc
50
112.12089552874241
51
167.96405245334654
0
LINE
5
103
100
AcDbEntity
8
0
100
AcDbLine
10
187.34147822469669
20
160.77888488270622
30
0
11
187.3414889507072
21
162.0998272137814
31
0
0
ARC
5
104
100
AcDbEntity
8
0
100
AcDbCircle
10
185.40061399264789
20
156.00410591627647
30
0
40
5.1541699763886442
210
0
220
-0
230
1
100
AcDbArc
50
12.035976139802829
51
67.8791169510217
0
LINE
5
105
100
AcDbEntity
8
0
100
AcDbLine
10
190.84147911855055
20
157.07888349225527
30
0
11
190.44147912749125
21
157.07888349225527
31
0
0
LINE
5
106
100
AcDbEntity
8
0
100
AcDbLine
10
190.84147911855055
20
147.47888370683205
30
0
11
190.84147911855055
21
157.07888349225527
31
0
0
LINE
5
107
100
AcDbEntity
8
0
100
AcDbLine
10
170.24147957899655
20
157.0788834922553
30
0
11
169.84147958793724
21
157.0788834922553
31
0
0
LINE
5
108
100
AcDbEntity
8
0
100
AcDbLine
10
169.84147958793724
20
157.0788834922553
30
0
11
169.84147958793724
21
147.47888370683205
31
0
0
LINE
5
109
100
AcDbEntity
8
0
100
AcDbLine
10
169.84147958793724
20
147.47888370683205
30
0
11
174.29999610409141
21
147.47888370683205
31
0
0
LINE
5
110
100
AcDbEntity
8
0
100
AcDbLine
10
186.50000277906656
20
147.47888370683205
30
0
11
190.84147911855055
21
147.47888370683205
31
0
0
LINE
5
111
100
AcDbEntity
8
0
100
AcDbLine
10
173.34147822469674
20
162.09971996626695
30
0
11
171.34146025183429
21
162.09971996626695
31
0
0
LINE
5
112
100
AcDbEntity
8
0
100
AcDbLine
10
171.34146025183429
20
163.10002285769914
30
0
11
173.34146025183429
21
163.10002285769914
31
0
0
LINE
5
113
100
AcDbEntity
8
0
100
AcDbLine
10
171.34146025183429
20
162.09971996626695
30
0
11
171.34146025183429
21
163.10002285769914
31
0
0
LINE
5
114
100
AcDbEntity
8
0
100
AcDbLine
10
189.3414889507072
20
163.0998272137814
30
0
11
187.3414889507072
21
163.0998272137814
31
0
0
LINE
5
115
100
AcDbEntity
8
0
100
AcDbLine
10
187.3414889507072
20
163.0998272137814
30
0
11
187.3414889507072
21
165.09999630972743
31
0
0
LINE
5
116
100
AcDbEntity
8
0
100
AcDbLine
10
189.3414889507072
20
162.0998272137814
30
0
11
189.3414889507072
21
163.0998272137814
31
0
0
LINE
5
117
100
AcDbEntity
8
0
100
AcDbLine
10
187.3414889507072
20
162.0998272137814
30
0
11
189.3414889507072
21
162.0998272137814
31
0
0
LINE
5
118
100
AcDbEntity
8
0
100
AcDbLine
10
173.34146025183429
20
163.10002285769914
30
0
11
173.34146025183429
21
165.09999630972743
31
0
0
LINE
5
119
100
AcDbEntity
8
0
100
AcDbLine
10
210
20
110
30
0
11
213.38051944447767
21
105.17068267331928
31
0
0
LINE
5
120
100
AcDbEntity
8
0
100
AcDbLine
10
263.03855897394845
20
79.709537780433791
30
0
11
252.14921878940655
21
79.709537780433791
31
0
0
LINE
5
121
100
AcDbEntity
8
0
100
AcDbLine
10
334.93203770832713
20
151.78344982928391
30
0
11
328.741260062653
21
154.6734190226758
31
0
0
LINE
5
122
100
AcDbEntity
8
0
100
AcDbLine
10
320
20
98.457115020621899
30
0
11
324.38621654756673
21
94.070898473055209
31
0
0
LINE
5
123
100
AcDbEntity
8
0
100
AcDbLine
10
300
20
102.97880886272623
30
0
11
304.52169384210436
21
98.457115020621899
31
0
0
LINE
5
124
100
AcDbEntity
8
0
100
AcDbLine
10
275
20
157.63785647127588
30
0
11
270.62918492670252
21
154.6734190226758
31
0
0
LINE
5
125
100
AcDbEntity
8
0
100
AcDbLine
10
174.29999610409141
20
123.96951322746013
30
0
11
170
21
120
31
0
0
LINE
5
126
100
AcDbEntity
8
0
100
AcDbLine
10
220
20
110
30
0
11
220
21
130
31
0
0
LINE
5
127
100
AcDbEntity
8
0
100
AcDbLine
10
40
20
140.85257028539644
30
0
11
18.917586243075736
21
121.39047816971497
31
0
0
LINE
5
128
100
AcDbEntity
8
0
100
AcDbLine
10
36.000000536441803
20
95.000001415610313
30
0
11
39.406764245872225
21
99.214681379749862
31
0
0
LINE
5
129
100
AcDbEntity
8
0
100
AcDbLine
10
242.31944956744064
20
145.73373710698195
30
0
11
235
21
135
31
0
0
LINE
5
130
100
AcDbEntity
8
0
100
AcDbLine
10
174.29999610409141
20
147.47888370683205
30
0
11
174.29999610409141
21
123.96951322746013
31
0
0
LINE
5
131
100
AcDbEntity
8
0
100
AcDbLine
10
268.98564959036446
20
38.151317623358352
30
0
11
271.18358494960864
21
40.34925298260255
31
0
0
LINE
5
132
100
AcDbEntity
8
0
100
AcDbLine
10
36.000000536441803
20
85.000001266598701
30
0
11
36.000000536441803
21
95.000001415610313
31
0
0
LINE
5
133
100
AcDbEntity
8
0
100
AcDbLine
10
160
20
94.288993434973378
30
0
11
165
21
100
31
0
0
LINE
5
134
100
AcDbEntity
8
0
100
AcDbLine
10
211.88747058760185
20
8.1125294123981604
30
0
11
240
21
8.1125294123981604
31
0
0
LINE
5
135
100
AcDbEntity
8
0
100
AcDbLine
10
114.04054496678071
20
129.2714615445183
30
0
11
100
21
129.2714615445183
31
0
0
LINE
5
136
100
AcDbEntity
8
0
100
AcDbLine
10
270.62918492670252
20
148.14977204847364
30
0
11
267.06694348191439
21
145.73373710698195
31
0
0
LINE
5
137
100
AcDbEntity
8
0
100
AcDbLine
10
247.21730381917831
20
22.637312611897613
30
0
11
265
21
22.637312611897613
31
0
0
LINE
5
138
100
AcDbEntity
8
0
100
AcDbLine
10
96.486139267617247
20
18.795835699131029
30
0
11
114.10452146403719
21
18.795835699131029
31
0
0
LINE
5
139
100
AcDbEntity
8
0
100
AcDbLine
10
18.917586243075736
20
121.39047816971497
30
0
11
10
21
121.39047816971497
31
0
0
LINE
5
140
100
AcDbEntity
8
0
100
AcDbLine
10
164.98178072413384
20
114.60345980030411
30
0
11
170
21
120
31
0
0
LINE
5
141
100
AcDbEntity
8
0
100
AcDbLine
10
340
20
142.15027599175735
30
0
11
334.93203770832713
21
144.51609426766336
31
0
0
LINE
5
142
100
AcDbEntity
8
0
100
AcDbLine
10
265
20
22.637312611897613
30
0
11
268.98564959036446
21
26.622962202262048
31
0
0
LINE
5
143
100
AcDbEntity
8
0
100
AcDbLine
10
84.214195267303495
20
95.000001415610313
30
0
11
84.214195267303495
21
84.00000125169754
31
0
0
LINE
5
144
100
AcDbEntity
8
0
100
AcDbLine
10
279.2984893715028
20
96.914230041243812
30
0
11
279.2984893715028
21
100
31
0
0
LINE
5
145
100
AcDbEntity
8
0
100
AcDbLine
10
270
20
72.748096754382203
30
0
11
263.03855897394845
21
79.709537780433791
31
0
0
LINE
5
146
100
AcDbEntity
8
0
100
AcDbLine
10
283.2072810005227
20
72.748096754382203
30
0
11
270
21
72.748096754382203
31
0
0
LINE
5
147
100
AcDbEntity
8
0
100
AcDbLine
10
215
20
105.17068267331928
30
0
11
217.00000323355198
21
105.17068267331928
31
0
0
LINE
5
148
100
AcDbEntity
8
0
100
AcDbLine
10
150.27207828872554
20
94.288993434973378
30
0
11
160
21
94.288993434973378
31
0
0
LINE
5
149
100
AcDbEntity
8
0
100
AcDbLine
10
249.53347811966549
20
82.325278450174864
30
0
11
249.53347811966549
21
90
31
0
0
LINE
5
150
100
AcDbEntity
8
0
100
AcDbLine
10
144.98178072413384
20
114.60345980030411
30
0
11
145
21
100
31
0
0
LINE
5
151
100
AcDbEntity
8
0
100
AcDbLine
10
87.215543571206354
20
81.573984432367297
30
0
11
124.88878764040912
21
81.573984432367297
31
0
0
LINE
5
152
100
AcDbEntity
8
0
100
AcDbLine
10
285
20
40.34925298260255
30
0
11
288.9045386189668
21
44.253791601569326
31
0
0
LINE
5
153
100
AcDbEntity
8
0
100
AcDbLine
10
324.38621654756673
20
94.070898473055209
30
0
11
324.38621654756673
21
85
31
0
0
LINE
5
154
100
AcDbEntity
8
0
100
AcDbLine
10
165
20
100
30
0
11
164.98178072413384
21
114.60345980030411
31
0
0
LINE
5
155
100
AcDbEntity
8
0
100
AcDbLine
10
117.04515705130797
20
16.41889351452582
30
0
11
117.04515705130797
21
10
31
0
0
LINE
5
156
100
AcDbEntity
8
0
100
AcDbLine
10
267.06694348191439
20
145.73373710698195
30
0
11
242.31944956744064
21
145.73373710698195
31
0
0
LINE
5
157
100
AcDbEntity
8
0
100
AcDbLine
10
94.640236170097566
20
50.150961270185881
30
0
11
89.48866039100011
21
43.777685906295503
31
0
0
LINE
5
158
100
AcDbEntity
8
0
100
AcDbLine
10
304.52169384210436
20
98.457115020621899
30
0
11
320
21
98.457115020621899
31
0
0
LINE
5
159
100
AcDbEntity
8
0
100
AcDbLine
10
244.57999120728067
20
12.692520619678874
30
0
11
244.57999120728067
21
20
31
0
0
LINE
5
160
100
AcDbEntity
8
0
100
AcDbLine
10
79.000001177191734
20
99.214681379749862
30
0
11
84.214195267303495
21
95.000001415610313
31
0
0
LINE
5
161
100
AcDbEntity
8
0
100
AcDbLine
10
186.50000277906656
20
147.47888370683205
30
0
11
186.50000277906656
21
130
31
0
0
LINE
5
162
100
AcDbEntity
8
0
100
AcDbLine
10
89.48866039100011
20
24.451960789813185
30
0
11
92.064448280548845
21
22.369928279642171
31
0
0
LINE
5
163
100
AcDbEntity
8
0
100
AcDbLine
10
288.9045386189668
20
67.05083913593802
30
0
11
283.2072810005227
21
72.748096754382203
31
0
0
LINE
5
164
100
AcDbEntity
8
0
100
AcDbLine
10
268.98564959036446
20
26.622962202262048
30
0
11
268.98564959036446
21
38.151317623358352
31
0
0
LINE
5
165
100
AcDbEntity
8
0
100
AcDbLine
10
354.60623613990066
20
85
30
0
11
354.60623613990066
21
140
31
0
0
LINE
5
166
100
AcDbEntity
8
0
100
AcDbLine
10
39.406764245872225
20
99.214681379749862
30
0
11
79.000001177191734
21
99.214681379749862
31
0
0
LINE
5
167
100
AcDbEntity
8
0
100
AcDbLine
10
84.214195267303495
20
84.00000125169754
30
0
11
87.215543571206354
21
81.573984432367297
31
0
0
LINE
5
168
100
AcDbEntity
8
0
100
AcDbLine
10
354.60623613990066
20
140
30
0
11
350
21
142.15027599175735
31
0
0
LINE
5
169
100
AcDbEntity
8
0
100
AcDbLine
10
10
20
121.39047816971497
30
0
11
6.4332478709434451
21
118.09785431317468
31
0
0
LINE
5
170
100
AcDbEntity
8
0
100
AcDbLine
10
244.57999120728067
20
20
30
0
11
247.21730381917831
21
22.637312611897613
31
0
0
LINE
5
171
100
AcDbEntity
8
0
100
AcDbLine
10
266.51927948697426
20
92.615740669741044
30
0
11
275
21
92.615740669741044
31
0
0
LINE
5
172
100
AcDbEntity
8
0
100
AcDbLine
10
324.38621654756673
20
85
30
0
11
328.99245268746739
21
80.393763860099341
31
0
0
LINE
5
173
100
AcDbEntity
8
0
100
AcDbLine
10
145
20
100
30
0
11
150.27207828872554
21
94.288993434973378
31
0
0
LINE
5
174
100
AcDbEntity
8
0
100
AcDbLine
10
89.308975351901211
20
140.85257028539644
30
0
11
40
21
140.85257028539644
31
0
0
LINE
5
175
100
AcDbEntity
8
0
100
AcDbLine
10
100
20
129.2714615445183
30
0
11
89.308975351901211
21
140.85257028539644
31
0
0
LINE
5
176
100
AcDbEntity
8
0
100
AcDbLine
10
350
20
80.393763860099341
30
0
11
354.60623613990066
21
85
31
0
0
LINE
5
177
100
AcDbEntity
8
0
100
AcDbLine
10
293.64969940483928
20
157.63785647127588
30
0
11
275
21
157.63785647127588
31
0
0
LINE
5
178
100
AcDbEntity
8
0
100
AcDbLine
10
217.00000323355198
20
105.17068267331928
30
0
11
220
21
110
31
0
0
LINE
5
179
100
AcDbEntity
8
0
100
AcDbLine
10
200
20
20
30
0
11
210
21
10
31
0
0
LINE
5
180
100
AcDbEntity
8
0
100
AcDbLine
10
141.08499846440941
20
42.218681303339139
30
0
11
141.08499846440941
21
54.525133414624875
31
0
0
LINE
5
181
100
AcDbEntity
8
0
100
AcDbLine
10
130
20
43.560987867310715
30
0
11
133.32127089721163
21
40.876374739367563
31
0
0
LINE
5
182
100
AcDbEntity
8
0
100
AcDbLine
10
140
20
7.2268775466706803
30
0
11
145.93125822845195
21
10
31
0
0
LINE
5
183
100
AcDbEntity
8
0
100
AcDbLine
10
141.08499846440941
20
54.525133414624875
30
0
11
136.6606354486058
21
59.485104019362225
31
0
0
LINE
5
184
100
AcDbEntity
8
0
100
AcDbLine
10
275
20
92.615740669741044
30
0
11
279.2984893715028
21
96.914230041243812
31
0
0
LINE
5
185
100
AcDbEntity
8
0
100
AcDbLine
10
120.47592731864383
20
7.2268775466706803
30
0
11
140
21
7.2268775466706803
31
0
0
LINE
5
186
100
AcDbEntity
8
0
100
AcDbLine
10
225.08577851309633
20
134.64965672446897
30
0
11
235
21
135
31
0
0
LINE
5
187
100
AcDbEntity
8
0
100
AcDbLine
10
133.32127089721163
20
40.876374739367563
30
0
11
140
21
40.876374739367563
31
0
0
LINE
5
188
100
AcDbEntity
8
0
100
AcDbLine
10
92.064448280548845
20
22.369928279642171
30
0
11
96.486139267617247
21
18.795835699131029
31
0
0
LINE
5
189
100
AcDbEntity
8
0
100
AcDbLine
10
270.62918492670252
20
154.6734190226758
30
0
11
270.62918492670252
21
148.14977204847364
31
0
0
LINE
5
190
100
AcDbEntity
8
0
100
AcDbLine
10
124.88878764040912
20
81.573984432367297
30
0
11
133.0941144897798
21
74.941544965481711
31
0
0
LINE
5
191
100
AcDbEntity
8
0
100
AcDbLine
10
213.38051944447767
20
105.17068267331928
30
0
11
215
21
105.17068267331928
31
0
0
LINE
5
192
100
AcDbEntity
8
0
100
AcDbLine
10
210
20
10
30
0
11
211.88747058760185
21
8.1125294123981604
31
0
0
LINE
5
193
100
AcDbEntity
8
0
100
AcDbLine
10
133.0941144897798
20
74.941544965481711
30
0
11
133.0941144897798
21
59.485104019362225
31
0
0
LINE
5
194
100
AcDbEntity
8
0
100
AcDbLine
10
220
20
130
30
0
11
225.08577851309633
21
134.64965672446897
31
0
0
LINE
5
195
100
AcDbEntity
8
0
100
AcDbLine
10
89.48866039100011
20
43.777685906295503
30
0
11
89.48866039100011
21
24.451960789813185
31
0
0
LINE
5
196
100
AcDbEntity
8
0
100
AcDbLine
10
271.18358494960864
20
40.34925298260255
30
0
11
285
21
40.34925298260255
31
0
0
LINE
5
197
100
AcDbEntity
8
0
100
AcDbLine
10
282.27729823422902
20
102.97880886272623
30
0
11
300
21
102.97880886272623
31
0
0
LINE
5
198
100
AcDbEntity
8
0
100
AcDbLine
10
122.59943393968825
20
120
30
0
11
114.04054496678071
21
129.2714615445183
31
0
0
LINE
5
199
100
AcDbEntity
8
0
100
AcDbLine
10
300
20
154.6734190226758
30
0
11
293.64969940483928
21
157.63785647127588
31
0
0
LINE
5
200
100
AcDbEntity
8
0
100
AcDbLine
10
140
20
120
30
0
11
144.98178072413384
21
114.60345980030411
31
0
0
LINE
5
201
100
AcDbEntity
8
0
100
AcDbLine
10
240
20
8.1125294123981604
30
0
11
244.57999120728067
21
12.692520619678874
31
0
0
LINE
5
202
100
AcDbEntity
8
0
100
AcDbLine
10
122.59943393968825
20
120
30
0
11
140
21
120
31
0
0
LINE
5
203
100
AcDbEntity
8
0
100
AcDbLine
10
249.53347811966549
20
90
30
0
11
252.14921878940655
21
92.615740669741044
31
0
0
LINE
5
204
100
AcDbEntity
8
0
100
AcDbLine
10
6.4332478709434451
20
85.000001266598701
30
0
11
10
21
80.051398561601786
31
0
0
LINE
5
205
100
AcDbEntity
8
0
100
AcDbLine
10
117.04515705130797
20
10
30
0
11
120.47592731864383
21
7.2268775466706803
31
0
0
LINE
5
206
100
AcDbEntity
8
0
100
AcDbLine
10
136.6606354486058
20
59.485104019362225
30
0
11
133.0941144897798
21
59.485104019362225
31
0
0
LINE
5
207
100
AcDbEntity
8
0
100
AcDbLine
10
279.2984893715028
20
100
30
0
11
282.27729823422902
21
102.97880886272623
31
0
0
LINE
5
208
100
AcDbEntity
8
0
100
AcDbLine
10
186.50000277906656
20
130
30
0
11
190
21
125
31
0
0
LINE
5
209
100
AcDbEntity
8
0
100
AcDbLine
10
350
20
142.15027599175735
30
0
11
340
21
142.15027599175735
31
0
0
LINE
5
210
100
AcDbEntity
8
0
100
AcDbLine
10
94.640236170097566
20
50.150961270185881
30
0
11
130
21
50.150961270185881
31
0
0
LINE
5
211
100
AcDbEntity
8
0
100
AcDbLine
10
10
20
80.051398561601786
30
0
11
32.000000476837158
21
80.051398561601786
31
0
0
LINE
5
212
100
AcDbEntity
8
0
100
AcDbLine
10
140
20
40.876374739367563
30
0
11
141.08499846440941
21
42.218681303339139
31
0
0
LINE
5
213
100
AcDbEntity
8
0
100
AcDbLine
10
252.14921878940655
20
92.615740669741044
30
0
11
266.51927948697426
21
92.615740669741044
31
0
0
LINE
5
214
100
AcDbEntity
8
0
100
AcDbLine
10
145.93125822845195
20
10
30
0
11
150
21
20
31
0
0
LINE
5
215
100
AcDbEntity
8
0
100
AcDbLine
10
6.4332478709434451
20
118.09785431317468
30
0
11
6.4332478709434451
21
85.000001266598701
31
0
0
LINE
5
216
100
AcDbEntity
8
0
100
AcDbLine
10
334.93203770832713
20
144.51609426766336
30
0
11
334.93203770832713
21
151.78344982928391
31
0
0
LINE
5
217
100
AcDbEntity
8
0
100
AcDbLine
10
328.99245268746739
20
80.393763860099341
30
0
11
350
21
80.393763860099341
31
0
0
LINE
5
218
100
AcDbEntity
8
0
100
AcDbLine
10
252.14921878940655
20
79.709537780433791
30
0
11
249.53347811966549
21
82.325278450174864
31
0
0
LINE
5
219
100
AcDbEntity
8
0
100
AcDbLine
10
114.10452146403719
20
18.795835699131029
30
0
11
117.04515705130797
21
16.41889351452582
31
0
0
LINE
5
220
100
AcDbEntity
8
0
100
AcDbLine
10
130
20
50.150961270185881
30
0
11
130
21
43.560987867310715
31
0
0
LINE
5
221
100
AcDbEntity
8
0
100
AcDbLine
10
32.000000476837158
20
80.051398561601786
30
0
11
36.000000536441803
21
85.000001266598701
31
0
0
LINE
5
222
100
AcDbEntity
8
0
100
AcDbLine
10
328.741260062653
20
154.6734190226758
30
0
11
300
21
154.6734190226758
31
0
0
LINE
5
223
100
AcDbEntity
8
0
100
AcDbLine
10
288.9045386189668
20
44.253791601569326
30
0
11
288.9045386189668
21
67.05083913593802
31
0
0
CIRCLE
5
224
100
AcDbEntity
8
0
100
AcDbCircle
10
13.75
20
151.34999999999997
30
0
40
3.3500000000000041
210
0
220
0
230
1
0
CIRCLE
5
225
100
AcDbEntity
8
0
100
AcDbCircle
10
13.75
20
13.75
30
0
40
3.3499999999999992
210
0
220
0
230
1
0
CIRCLE
5
226
100
AcDbEntity
8
0
100
AcDbCircle
10
180.34000000000003
20
13.75
30
0
40
3.3500000000000094
210
0
220
0
230
1
0
LINE
5
227
100
AcDbEntity
8
0
100
AcDbLine
10
200
20
20
30
0
11
190
21
20
31
0
0
LINE
5
228
100
AcDbEntity
8
0
100
AcDbLine
10
190
20
20
30
0
11
185
21
25
31
0
0
LINE
5
229
100
AcDbEntity
8
0
100
AcDbLine
10
185
20
25
30
0
11
173.09783233824248
21
25
31
0
0
LINE
5
230
100
AcDbEntity
8
0
100
AcDbLine
10
173.09783233824248
20
25
30
0
11
168.09783233824248
21
20
31
0
0
LINE
5
231
100
AcDbEntity
8
0
100
AcDbLine
10
168.09783233824248
20
20
30
0
11
150
21
20
31
0
0
CIRCLE
5
232
100
AcDbEntity
8
0
100
AcDbCircle
10
346.93000000000006
20
13.75
30
0
40
3.3499999999999948
210
0
220
0
230
1
0
CIRCLE
5
233
100
AcDbEntity
8
0
100
AcDbCircle
10
346.93000000000006
20
151.35000000000005
30
0
40
3.3500000000000152
210
0
220
0
230
1
0
CIRCLE
5
234
100
AcDbEntity
8
0
100
AcDbCircle
10
205.34000000000009
20
151.34999999999999
30
0
40
3.349999999999997
210
0
220
0
230
1
0
CIRCLE
5
235
100
AcDbEntity
8
0
100
AcDbCircle
10
155.34
20
151.34999999999999
30
0
40
3.3499999999999988
210
0
220
0
230
1
0
LINE
5
236
100
AcDbEntity
8
0
100
AcDbLine
10
190
20
125
30
0
11
205
21
125
31
0
0
LINE
5
237
100
AcDbEntity
8
0
100
AcDbLine
10
205
20
125
30
0
11
210
21
120
31
0
0
LINE
5
238
100
AcDbEntity
8
0
100
AcDbLine
10
210
20
120
30
0
11
210
21
110
31
0
0
ENDSEC
0
SECTION
2
OBJECTS
0
DICTIONARY
5
C
100
AcDbDictionary
3
ACAD_GROUP
350
D
3
ACAD_MLINESTYLE
350
17
0
DICTIONARY
5
D
100
AcDbDictionary
0
DICTIONARY
5
1A
330
C
100
AcDbDictionary
0
DICTIONARY
5
17
100
AcDbDictionary
0
ENDSEC
0
EOF
