0
SECTION
2
HEADER
9
$INSUNITS
70
4
9
$ACADVER
1
AC1014
9
$HANDSEED
5
FFFF
0
ENDSEC
0
SECTION
2
TABLES
0
TABLE
2
VPORT
5
8
100
AcDbSymbolTable
0
ENDTAB
0
TABLE
2
LTYPE
5
5
100
AcDbSymbolTable
0
LTYPE
5
14
100
AcDbSymbolTableRecord
100
AcDbLinetypeTableRecord
2
BYBLOCK
70
0
0
LTYPE
5
15
100
AcDbSymbolTableRecord
100
AcDbLinetypeTableRecord
2
BYLAYER
70
0
0
ENDTAB
0
TABLE
2
LAYER
5
2
100
AcDbSymbolTable
70
2
0
LAYER
5
50
100
AcDbSymbolTableRecord
100
AcDbLayerTableRecord
2
0
70
0
6
CONTINUOUS
0
ENDTAB
0
TABLE
2
STYLE
5
3
100
AcDbSymbolTable
70
1
0
STYLE
5
11
100
AcDbSymbolTableRecord
100
AcDbTextStyleTableRecord
2
STANDARD
70
0
0
ENDTAB
0
TABLE
2
VIEW
5
6
100
AcDbSymbolTable
70
0
0
ENDTAB
0
TABLE
2
UCS
5
7
100
AcDbSymbolTable
70
0
0
ENDTAB
0
TABLE
2
APPID
5
9
100
AcDbSymbolTable
70
2
0
APPID
5
12
100
AcDbSymbolTableRecord
100
AcDbRegAppTableRecord
2
ACAD
70
0
0
ENDTAB
0
TABLE
2
DIMSTYLE
5
A
100
AcDbSymbolTable
70
1
0
ENDTAB
0
TABLE
2
BLOCK_RECORD
5
1
100
AcDbSymbolTable
70
1
0
BLOCK_RECORD
5
1F
100
AcDbSymbolTableRecord
100
AcDbBlockTableRecord
2
*MODEL_SPACE
0
BLOCK_RECORD
5
1B
100
AcDbSymbolTableRecord
100
AcDbBlockTableRecord
2
*PAPER_SPACE
0
ENDTAB
0
ENDSEC
0
SECTION
2
BLOCKS
0
BLOCK
5
20
100
AcDbEntity
100
AcDbBlockBegin
2
*MODEL_SPACE
0
ENDBLK
5
21
100
AcDbEntity
100
AcDbBlockEnd
0
BLOCK
5
1C
100
AcDbEntity
100
AcDbBlockBegin
2
*PAPER_SPACE
0
ENDBLK
5
1D
100
AcDbEntity
100
AcDbBlockEnd
0
ENDSEC
0
SECTION
2
ENTITIES
0
LWPOLYLINE
5
100
100
AcDbEntity
8
0
100
AcDbPolyline
90
8
70
1
43
0.0
10
-2.3869795029440862e-14
20
163.10000000000005
10
2.7755575615628914e-16
20
1.9999999999999931
42
0.41421356237309592
10
2.0000000000000284
20
8.3266726846886741e-16
10
358.68000000000001
20
-3.3306690738754696e-14
42
0.41421356237305307
10
360.68000000000006
20
1.9999999999999929
10
360.67999999999995
20
163.10000000000005
42
0.41421356237311063
10
358.67999999999995
20
165.09999999999994
10
1.9999999999999576
20
165.10000000000008
42
0.41421356237307905
0
ARC
5
101
100
AcDbEntity
8
0
100
AcDbCircle
10
175.28234239894658
20
157.32510903981597
30
0
40
5.1541670610459818
210
0
220
0
230
1
100
AcDbArc
50
112.12089552874217
51
167.96405245334626
0
ARC
5
102
100
AcDbEntity
8
0
100
AcDbCircle
10
185.40061399264789
20
157.32510591627647
30
0
40
5.1541699763886442
210
0
220
-0
230
1
100
AcDbArc
50
12.035976139802829
51
67.879116951021828
0
LINE
5
103
100
AcDbEntity
8
0
100
AcDbLine
10
190.84147911855055
20
158.39988349225527
30
0
11
190.44147912749125
21
158.39988349225527
31
0
0
LINE
5
104
100
AcDbEntity
8
0
100
AcDbLine
10
190.84147911855055
20
148.79988370683205
30
0
11
190.84147911855055
21
158.39988349225527
31
0
0
LINE
5
105
100
AcDbEntity
8
0
100
AcDbLine
10
170.24147957899655
20
158.3998834922553
30
0
11
169.84147958793724
21
158.3998834922553
31
0
0
LINE
5
106
100
AcDbEntity
8
0
100
AcDbLine
10
169.84147958793724
20
158.3998834922553
30
0
11
169.84147958793724
21
148.79988370683205
31
0
0
LINE
5
107
100
AcDbEntity
8
0
100
AcDbLine
10
169.84147958793724
20
148.79988370683205
30
0
11
174.29999610409141
21
148.79988370683205
31
0
0
LINE
5
108
100
AcDbEntity
8
0
100
AcDbLine
10
186.50000277906656
20
148.79988370683205
30
0
11
190.84147911855055
21
148.79988370683205
31
0
0
LINE
5
109
100
AcDbEntity
8
0
100
AcDbLine
10
173.34147822469674
20
162.09971996626695
30
0
11
171.34146025183429
21
162.09971996626695
31
0
0
LINE
5
110
100
AcDbEntity
8
0
100
AcDbLine
10
171.34146025183429
20
163.10002285769914
30
0
11
173.34146025183429
21
163.10002285769914
31
0
0
LINE
5
111
100
AcDbEntity
8
0
100
AcDbLine
10
171.34146025183429
20
162.09971996626695
30
0
11
171.34146025183429
21
163.10002285769914
31
0
0
LINE
5
112
100
AcDbEntity
8
0
100
AcDbLine
10
189.3414889507072
20
163.0998272137814
30
0
11
187.3414889507072
21
163.0998272137814
31
0
0
LINE
5
113
100
AcDbEntity
8
0
100
AcDbLine
10
187.3414889507072
20
163.0998272137814
30
0
11
187.3414889507072
21
165.09999630972743
31
0
0
LINE
5
114
100
AcDbEntity
8
0
100
AcDbLine
10
189.3414889507072
20
162.0998272137814
30
0
11
189.3414889507072
21
163.0998272137814
31
0
0
LINE
5
115
100
AcDbEntity
8
0
100
AcDbLine
10
187.3414889507072
20
162.0998272137814
30
0
11
189.3414889507072
21
162.0998272137814
31
0
0
LINE
5
116
100
AcDbEntity
8
0
100
AcDbLine
10
173.34146025183429
20
163.10002285769914
30
0
11
173.34146025183429
21
165.09999630972743
31
0
0
LINE
5
117
100
AcDbEntity
8
0
100
AcDbLine
10
174.29999610409141
20
123.96951322746013
30
0
11
169.9999962002039
21
120
31
0
0
LINE
5
118
100
AcDbEntity
8
0
100
AcDbLine
10
174.29999610409141
20
148.79988370683205
30
0
11
174.29999610409141
21
123.96951322746013
31
0
0
LINE
5
119
100
AcDbEntity
8
0
100
AcDbLine
10
186.50000277906656
20
148.79988370683205
30
0
11
186.50000277906656
21
130
31
0
0
LINE
5
120
100
AcDbEntity
8
0
100
AcDbLine
10
186.50000277906656
20
130
30
0
11
190
21
125
31
0
0
CIRCLE
5
121
100
AcDbEntity
8
0
100
AcDbCircle
10
13.75
20
151.34999999999997
30
0
40
3.3500000000000041
210
0
220
0
230
1
0
CIRCLE
5
122
100
AcDbEntity
8
0
100
AcDbCircle
10
13.75
20
13.75
30
0
40
3.3499999999999992
210
0
220
0
230
1
0
CIRCLE
5
123
100
AcDbEntity
8
0
100
AcDbCircle
10
180.34000000000003
20
13.75
30
0
40
3.3500000000000094
210
0
220
0
230
1
0
CIRCLE
5
124
100
AcDbEntity
8
0
100
AcDbCircle
10
346.93000000000006
20
13.75
30
0
40
3.3499999999999948
210
0
220
0
230
1
0
CIRCLE
5
125
100
AcDbEntity
8
0
100
AcDbCircle
10
346.93000000000006
20
151.35000000000005
30
0
40
3.3500000000000152
210
0
220
0
230
1
0
CIRCLE
5
126
100
AcDbEntity
8
0
100
AcDbCircle
10
205.34000000000009
20
151.34999999999999
30
0
40
3.349999999999997
210
0
220
0
230
1
0
CIRCLE
5
127
100
AcDbEntity
8
0
100
AcDbCircle
10
155.34
20
151.34999999999999
30
0
40
3.3499999999999988
210
0
220
0
230
1
0
LINE
5
128
100
AcDbEntity
8
0
100
AcDbLine
10
169.9999962002039
20
120
30
0
11
169.00000251829624
21
120
31
0
0
LINE
5
129
100
AcDbEntity
8
0
100
AcDbLine
10
169.9999962002039
20
120
30
0
11
160
21
120
31
0
0
LINE
5
130
100
AcDbEntity
8
0
100
AcDbLine
10
160
20
120
30
0
11
155
21
115
31
0
0
LINE
5
131
100
AcDbEntity
8
0
100
AcDbLine
10
155
20
115
30
0
11
155
21
95
31
0
0
LINE
5
132
100
AcDbEntity
8
0
100
AcDbLine
10
155
20
95
30
0
11
150
21
90
31
0
0
LINE
5
133
100
AcDbEntity
8
0
100
AcDbLine
10
150
20
90
30
0
11
140
21
90
31
0
0
LINE
5
134
100
AcDbEntity
8
0
100
AcDbLine
10
140
20
90
30
0
11
135
21
95
31
0
0
LINE
5
135
100
AcDbEntity
8
0
100
AcDbLine
10
135
20
95
30
0
11
135
21
115
31
0
0
LINE
5
136
100
AcDbEntity
8
0
100
AcDbLine
10
135
20
115
30
0
11
130
21
120
31
0
0
LINE
5
137
100
AcDbEntity
8
0
100
AcDbLine
10
130
20
120
30
0
11
125
21
120
31
0
0
LINE
5
138
100
AcDbEntity
8
0
100
AcDbLine
10
125
20
120
30
0
11
115
21
130
31
0
0
LINE
5
139
100
AcDbEntity
8
0
100
AcDbLine
10
115
20
130
30
0
11
115
21
135
31
0
0
LINE
5
140
100
AcDbEntity
8
0
100
AcDbLine
10
115
20
135
30
0
11
110
21
140
31
0
0
LINE
5
141
100
AcDbEntity
8
0
100
AcDbLine
10
110
20
140
30
0
11
60
21
140
31
0
0
LINE
5
142
100
AcDbEntity
8
0
100
AcDbLine
10
60
20
140
30
0
11
55
21
135
31
0
0
LINE
5
143
100
AcDbEntity
8
0
100
AcDbLine
10
55
20
135
30
0
11
40
21
135
31
0
0
LINE
5
144
100
AcDbEntity
8
0
100
AcDbLine
10
40
20
135
30
0
11
30
21
125
31
0
0
LINE
5
145
100
AcDbEntity
8
0
100
AcDbLine
10
30
20
125
30
0
11
30
21
115
31
0
0
LINE
5
146
100
AcDbEntity
8
0
100
AcDbLine
10
30
20
115
30
0
11
20
21
115
31
0
0
LINE
5
147
100
AcDbEntity
8
0
100
AcDbLine
10
20
20
115
30
0
11
14.869739257813585
21
109.86973925781358
31
0
0
LINE
5
148
100
AcDbEntity
8
0
100
AcDbLine
10
14.869739257813585
20
109.86973925781358
30
0
11
14.869739257813585
21
89.000001326203346
31
0
0
LINE
5
149
100
AcDbEntity
8
0
100
AcDbLine
10
14.869739257813585
20
89.000001326203346
30
0
11
20
21
83.869740584016938
31
0
0
LINE
5
150
100
AcDbEntity
8
0
100
AcDbLine
10
20
20
83.869740584016938
30
0
11
45.000000670552254
21
83.869740584016938
31
0
0
LINE
5
151
100
AcDbEntity
8
0
100
AcDbLine
10
45.000000670552254
20
83.869740584016938
30
0
11
54.31260854548885
21
93.182348458953584
31
0
0
LINE
5
152
100
AcDbEntity
8
0
100
AcDbLine
10
54.31260854548885
20
93.182348458953584
30
0
11
73.000001087784767
21
93.182348458953584
31
0
0
LINE
5
153
100
AcDbEntity
8
0
100
AcDbLine
10
73.000001087784767
20
93.182348458953584
30
0
11
88.904201766819739
21
88.526044521485261
31
0
0
LINE
5
154
100
AcDbEntity
8
0
100
AcDbLine
10
88.904201766819739
20
88.526044521485261
30
0
11
96.000001430511475
21
83.000001236796379
31
0
0
LINE
5
155
100
AcDbEntity
8
0
100
AcDbLine
10
96.000001430511475
20
83.000001236796379
30
0
11
107.00000159442425
21
77.000001147389412
31
0
0
LINE
5
156
100
AcDbEntity
8
0
100
AcDbLine
10
107.00000159442425
20
77.000001147389412
30
0
11
116.0000017285347
21
77.000001147389412
31
0
0
LINE
5
157
100
AcDbEntity
8
0
100
AcDbLine
10
116.0000017285347
20
77.000001147389412
30
0
11
122.0730839034597
21
72.270426390391876
31
0
0
LINE
5
158
100
AcDbEntity
8
0
100
AcDbLine
10
122.0730839034597
20
72.270426390391876
30
0
11
122.0730839034597
21
55
31
0
0
LINE
5
159
100
AcDbEntity
8
0
100
AcDbLine
10
122.0730839034597
20
55
30
0
11
110
21
55
31
0
0
LINE
5
160
100
AcDbEntity
8
0
100
AcDbLine
10
110
20
55
30
0
11
105
21
50
31
0
0
LINE
5
161
100
AcDbEntity
8
0
100
AcDbLine
10
105
20
50
30
0
11
105
21
25
31
0
0
LINE
5
162
100
AcDbEntity
8
0
100
AcDbLine
10
105
20
25
30
0
11
110
21
19.999999999999996
31
0
0
LINE
5
163
100
AcDbEntity
8
0
100
AcDbLine
10
110
20
19.999999999999996
30
0
11
125
21
19.999999999999996
31
0
0
LINE
5
164
100
AcDbEntity
8
0
100
AcDbLine
10
125
20
19.999999999999996
30
0
11
130
21
15
31
0
0
LINE
5
165
100
AcDbEntity
8
0
100
AcDbLine
10
130
20
15
30
0
11
135
21
10
31
0
0
LINE
5
166
100
AcDbEntity
8
0
100
AcDbLine
10
135
20
10
30
0
11
160
21
10
31
0
0
LINE
5
167
100
AcDbEntity
8
0
100
AcDbLine
10
160
20
10
30
0
11
162.5
21
12.5
31
0
0
LINE
5
168
100
AcDbEntity
8
0
100
AcDbLine
10
199.91970830017027
20
13.170104118401547
30
0
11
202.9990533875557
21
10.090759031016091
31
0
0
LINE
5
169
100
AcDbEntity
8
0
100
AcDbLine
10
202.9990533875557
20
10.090759031016091
30
0
11
235
21
10.090759031016091
31
0
0
LINE
5
170
100
AcDbEntity
8
0
100
AcDbLine
10
235
20
10.090759031016091
30
0
11
238.07934508738549
21
13.170104118401547
31
0
0
LINE
5
171
100
AcDbEntity
8
0
100
AcDbLine
10
238.07934508738549
20
13.170104118401547
30
0
11
238.07934508738549
21
19.085052059200773
31
0
0
LINE
5
172
100
AcDbEntity
8
0
100
AcDbLine
10
238.07934508738549
20
19.085052059200773
30
0
11
243.02221889403884
21
24.027925865854129
31
0
0
LINE
5
173
100
AcDbEntity
8
0
100
AcDbLine
10
243.02221889403884
20
24.027925865854129
30
0
11
261.84698100258316
21
24.027925865854129
31
0
0
LINE
5
174
100
AcDbEntity
8
0
100
AcDbLine
10
261.84698100258316
20
24.027925865854129
30
0
11
265.38087803508506
21
27.561822898355981
31
0
0
LINE
5
175
100
AcDbEntity
8
0
100
AcDbLine
10
265.38087803508506
20
27.561822898355981
30
0
11
265.38087803508506
21
35
31
0
0
LINE
5
176
100
AcDbEntity
8
0
100
AcDbLine
10
265.38087803508506
20
35
30
0
11
269.42955633632744
21
39.048678301242376
31
0
0
LINE
5
177
100
AcDbEntity
8
0
100
AcDbLine
10
269.42955633632744
20
39.048678301242376
30
0
11
280
21
39.048678301242376
31
0
0
LINE
5
178
100
AcDbEntity
8
0
100
AcDbLine
10
280
20
39.048678301242376
30
0
11
283.87675958341913
21
42.925437884661534
31
0
0
LINE
5
179
100
AcDbEntity
8
0
100
AcDbLine
10
283.87675958341913
20
42.925437884661534
30
0
11
283.87675958341913
21
67.743645591879712
31
0
0
LINE
5
180
100
AcDbEntity
8
0
100
AcDbLine
10
283.87675958341913
20
67.743645591879712
30
0
11
278.23955503673807
21
73.380850138560831
31
0
0
LINE
5
181
100
AcDbEntity
8
0
100
AcDbLine
10
278.23955503673807
20
73.380850138560831
30
0
11
262.64367503869232
21
73.380850138560831
31
0
0
LINE
5
182
100
AcDbEntity
8
0
100
AcDbLine
10
262.64367503869232
20
73.380850138560831
30
0
11
255.40401510615456
21
80.620510071098565
31
0
0
LINE
5
183
100
AcDbEntity
8
0
100
AcDbLine
10
255.40401510615456
20
80.620510071098565
30
0
11
251.5201316801224
21
84.504393497130764
31
0
0
LINE
5
184
100
AcDbEntity
8
0
100
AcDbLine
10
251.5201316801224
20
84.504393497130764
30
0
11
251.5201316801224
21
87.742343079459602
31
0
0
LINE
5
185
100
AcDbEntity
8
0
100
AcDbLine
10
251.5201316801224
20
87.742343079459602
30
0
11
255.40401510615456
21
89.32747785161142
31
0
0
LINE
5
186
100
AcDbEntity
8
0
100
AcDbLine
10
255.40401510615456
20
89.32747785161142
30
0
11
270
21
89.32747785161142
31
0
0
LINE
5
187
100
AcDbEntity
8
0
100
AcDbLine
10
270
20
89.32747785161142
30
0
11
273.94130887761673
21
93.268786729228168
31
0
0
LINE
5
188
100
AcDbEntity
8
0
100
AcDbLine
10
273.94130887761673
20
93.268786729228168
30
0
11
273.94130887761673
21
100
31
0
0
LINE
5
189
100
AcDbEntity
8
0
100
AcDbLine
10
273.94130887761673
20
100
30
0
11
276.38786307345418
21
102.44655419583739
31
0
0
LINE
5
190
100
AcDbEntity
8
0
100
AcDbLine
10
276.38786307345418
20
102.44655419583739
30
0
11
295
21
102.44655419583739
31
0
0
LINE
5
191
100
AcDbEntity
8
0
100
AcDbLine
10
295
20
102.44655419583739
30
0
11
300
21
100
31
0
0
LINE
5
192
100
AcDbEntity
8
0
100
AcDbLine
10
300
20
100
30
0
11
315
21
100
31
0
0
LINE
5
193
100
AcDbEntity
8
0
100
AcDbLine
10
315
20
100
30
0
11
320
21
95
31
0
0
LINE
5
194
100
AcDbEntity
8
0
100
AcDbLine
10
320
20
95
30
0
11
320
21
85
31
0
0
LINE
5
195
100
AcDbEntity
8
0
100
AcDbLine
10
320
20
85
30
0
11
322.40391543493206
21
82.596084565067983
31
0
0
LINE
5
196
100
AcDbEntity
8
0
100
AcDbLine
10
322.40391543493206
20
82.596084565067983
30
0
11
343.40152167084182
21
82.596084565067983
31
0
0
LINE
5
197
100
AcDbEntity
8
0
100
AcDbLine
10
343.40152167084182
20
82.596084565067983
30
0
11
345.80543710577388
21
85
31
0
0
LINE
5
198
100
AcDbEntity
8
0
100
AcDbLine
10
345.80543710577388
20
85
30
0
11
345.80543710577388
21
135
31
0
0
LINE
5
199
100
AcDbEntity
8
0
100
AcDbLine
10
345.80543710577388
20
135
30
0
11
340.58051237881864
21
140.22492472695527
31
0
0
LINE
5
200
100
AcDbEntity
8
0
100
AcDbLine
10
340.58051237881864
20
140.22492472695527
30
0
11
325
21
140.22492472695527
31
0
0
LINE
5
201
100
AcDbEntity
8
0
100
AcDbLine
10
325
20
140.22492472695527
30
0
11
322.13462799883325
21
143.09029672812204
31
0
0
LINE
5
202
100
AcDbEntity
8
0
100
AcDbLine
10
322.13462799883325
20
143.09029672812204
30
0
11
322.13462799883325
21
151.14773396553218
31
0
0
LINE
5
203
100
AcDbEntity
8
0
100
AcDbLine
10
322.13462799883325
20
151.14773396553218
30
0
11
319.49864109708227
21
153.78372086728317
31
0
0
LINE
5
204
100
AcDbEntity
8
0
100
AcDbLine
10
319.49864109708227
20
153.78372086728317
30
0
11
292.00000435113907
21
153.78372086728317
31
0
0
LINE
5
205
100
AcDbEntity
8
0
100
AcDbLine
10
292.00000435113907
20
153.78372086728317
30
0
11
289.44460429289683
21
156.33912092552544
31
0
0
LINE
5
206
100
AcDbEntity
8
0
100
AcDbLine
10
289.44460429289683
20
156.33912092552544
30
0
11
269.34284705919606
21
156.33912092552544
31
0
0
LINE
5
207
100
AcDbEntity
8
0
100
AcDbLine
10
269.34284705919606
20
156.33912092552544
30
0
11
264.37682978360561
21
151.37310364993499
31
0
0
LINE
5
208
100
AcDbEntity
8
0
100
AcDbLine
10
264.37682978360561
20
151.37310364993499
30
0
11
264.37682978360561
21
146.00000217556953
31
0
0
LINE
5
209
100
AcDbEntity
8
0
100
AcDbLine
10
264.37682978360561
20
146.00000217556953
30
0
11
261.86466139626515
21
143.48783378822904
31
0
0
LINE
5
210
100
AcDbEntity
8
0
100
AcDbLine
10
261.86466139626515
20
143.48783378822904
30
0
11
240.00000357627869
21
143.48783378822904
31
0
0
LINE
5
211
100
AcDbEntity
8
0
100
AcDbLine
10
240.00000357627869
20
143.48783378822904
30
0
11
235.00000350177288
21
141.00000210106373
31
0
0
LINE
5
212
100
AcDbEntity
8
0
100
AcDbLine
10
235.00000350177288
20
141.00000210106373
30
0
11
235.00000350177288
21
135.00000201165676
31
0
0
LINE
5
213
100
AcDbEntity
8
0
100
AcDbLine
10
235.00000350177288
20
135.00000201165676
30
0
11
232.93145216816768
21
133.97076051613942
31
0
0
LINE
5
214
100
AcDbEntity
8
0
100
AcDbLine
10
232.93145216816768
20
133.97076051613942
30
0
11
226.00000336766243
21
133.97076051613942
31
0
0
LINE
5
215
100
AcDbEntity
8
0
100
AcDbLine
10
226.00000336766243
20
133.97076051613942
30
0
11
224.00000333786011
21
132.00000196695328
31
0
0
LINE
5
216
100
AcDbEntity
8
0
100
AcDbLine
10
224.00000333786011
20
132.00000196695328
30
0
11
224.00000333786011
21
112.00000166893005
31
0
0
LINE
5
217
100
AcDbEntity
8
0
100
AcDbLine
10
224.00000333786011
20
112.00000166893005
30
0
11
222.345317251035
21
110.36950831731133
31
0
0
LINE
5
218
100
AcDbEntity
8
0
100
AcDbLine
10
222.345317251035
20
110.36950831731133
30
0
11
210.00000312924385
21
110.36950831731133
31
0
0
LINE
5
219
100
AcDbEntity
8
0
100
AcDbLine
10
210.00000312924385
20
110.36950831731133
30
0
11
207.59967600080267
21
112.80545072659336
31
0
0
LINE
5
220
100
AcDbEntity
8
0
100
AcDbLine
10
199.91970830017027
20
13.170104118401547
30
0
11
199.91970830017027
21
21.000000312924385
31
0
0
LINE
5
221
100
AcDbEntity
8
0
100
AcDbLine
10
199.91970830017027
20
21.000000312924385
30
0
11
199.91970830017027
21
25.00000037252903
31
0
0
LINE
5
222
100
AcDbEntity
8
0
100
AcDbLine
10
199.91970830017027
20
25.00000037252903
30
0
11
196.00000292062759
21
28.000000417232513
31
0
0
LINE
5
223
100
AcDbEntity
8
0
100
AcDbLine
10
196.00000292062759
20
28.000000417232513
30
0
11
166.00000247359276
21
28.000000417232513
31
0
0
LINE
5
224
100
AcDbEntity
8
0
100
AcDbLine
10
162.5
20
12.5
30
0
11
162.5
21
25.00000037252903
31
0
0
LINE
5
225
100
AcDbEntity
8
0
100
AcDbLine
10
162.5
20
25.00000037252903
30
0
11
166.00000247359276
21
28.000000417232513
31
0
0
LINE
5
226
100
AcDbEntity
8
0
100
AcDbLine
10
190
20
125
30
0
11
204.00000303983688
21
125
31
0
0
LINE
5
227
100
AcDbEntity
8
0
100
AcDbLine
10
204.00000303983688
20
125
30
0
11
207.00000308454037
21
123.00000183284283
31
0
0
LINE
5
228
100
AcDbEntity
8
0
100
AcDbLine
10
207.00000308454037
20
123.00000183284283
30
0
11
207.59967600080267
21
112.80545072659336
31
0
0
ENDSEC
0
SECTION
2
OBJECTS
0
DICTIONARY
5
C
100
AcDbDictionary
3
ACAD_GROUP
350
D
3
ACAD_MLINESTYLE
350
17
0
DICTIONARY
5
D
100
AcDbDictionary
0
DICTIONARY
5
1A
330
C
100
AcDbDictionary
0
DICTIONARY
5
17
100
AcDbDictionary
0
ENDSEC
0
EOF
