0
SECTION
2
HEADER
9
$INSUNITS
70
4
9
$ACADVER
1
AC1014
9
$HANDSEED
5
FFFF
0
ENDSEC
0
SECTION
2
TABLES
0
TABLE
2
VPORT
5
8
100
AcDbSymbolTable
0
ENDTAB
0
TABLE
2
LTYPE
5
5
100
AcDbSymbolTable
0
LTYPE
5
14
100
AcDbSymbolTableRecord
100
AcDbLinetypeTableRecord
2
BYBLOCK
70
0
0
LTYPE
5
15
100
AcDbSymbolTableRecord
100
AcDbLinetypeTableRecord
2
BYLAYER
70
0
0
ENDTAB
0
TABLE
2
LAYER
5
2
100
AcDbSymbolTable
70
2
0
LAYER
5
50
100
AcDbSymbolTableRecord
100
AcDbLayerTableRecord
2
0
70
0
6
CONTINUOUS
0
ENDTAB
0
TABLE
2
STYLE
5
3
100
AcDbSymbolTable
70
1
0
STYLE
5
11
100
AcDbSymbolTableRecord
100
AcDbTextStyleTableRecord
2
STANDARD
70
0
0
ENDTAB
0
TABLE
2
VIEW
5
6
100
AcDbSymbolTable
70
0
0
ENDTAB
0
TABLE
2
UCS
5
7
100
AcDbSymbolTable
70
0
0
ENDTAB
0
TABLE
2
APPID
5
9
100
AcDbSymbolTable
70
2
0
APPID
5
12
100
AcDbSymbolTableRecord
100
AcDbRegAppTableRecord
2
ACAD
70
0
0
ENDTAB
0
TABLE
2
DIMSTYLE
5
A
100
AcDbSymbolTable
70
1
0
ENDTAB
0
TABLE
2
BLOCK_RECORD
5
1
100
AcDbSymbolTable
70
1
0
BLOCK_RECORD
5
1F
100
AcDbSymbolTableRecord
100
AcDbBlockTableRecord
2
*MODEL_SPACE
0
BLOCK_RECORD
5
1B
100
AcDbSymbolTableRecord
100
AcDbBlockTableRecord
2
*PAPER_SPACE
0
ENDTAB
0
ENDSEC
0
SECTION
2
BLOCKS
0
BLOCK
5
20
100
AcDbEntity
100
AcDbBlockBegin
2
*MODEL_SPACE
0
ENDBLK
5
21
100
AcDbEntity
100
AcDbBlockEnd
0
BLOCK
5
1C
100
AcDbEntity
100
AcDbBlockBegin
2
*PAPER_SPACE
0
ENDBLK
5
1D
100
AcDbEntity
100
AcDbBlockEnd
0
ENDSEC
0
SECTION
2
ENTITIES
0
LWPOLYLINE
5
100
100
AcDbEntity
8
0
100
AcDbPolyline
90
8
70
1
43
0.0
10
2.7755575615628914e-16
20
1.9999999999999929
10
-2.3869795029440866e-14
20
163.10000000000005
42
-0.41421356237309331
10
1.9999999999999574
20
165.10000000000005
10
358.67999999999995
20
165.09999999999994
42
-0.4142135623730846
10
360.68000000000006
20
163.10000000000005
10
360.68000000000006
20
1.9999999999999931
42
-0.41421356237305362
10
358.68000000000001
20
-4.5796699765787707e-14
10
2.0000000000000284
20
8.3266726846886741e-16
42
-0.41421356237309587
0
CIRCLE
5
101
100
AcDbEntity
8
0
100
AcDbCircle
10
346.93000000000006
20
151.35000000000005
30
0
40
2.600000000000013
210
0
220
0
230
1
0
CIRCLE
5
102
100
AcDbEntity
8
0
100
AcDbCircle
10
13.75
20
13.75
30
0
40
2.6000000000000001
210
0
220
0
230
1
0
CIRCLE
5
103
100
AcDbEntity
8
0
100
AcDbCircle
10
205.34000000000009
20
151.34999999999999
30
0
40
2.6000000000000005
210
0
220
0
230
1
0
CIRCLE
5
104
100
AcDbEntity
8
0
100
AcDbCircle
10
346.93000000000006
20
13.75
30
0
40
2.6000000000000063
210
0
220
0
230
1
0
CIRCLE
5
105
100
AcDbEntity
8
0
100
AcDbCircle
10
155.34
20
151.34999999999999
30
0
40
2.599999999999993
210
0
220
0
230
1
0
CIRCLE
5
106
100
AcDbEntity
8
0
100
AcDbCircle
10
180.34000000000003
20
13.75
30
0
40
2.6000000000000107
210
0
220
0
230
1
0
CIRCLE
5
107
100
AcDbEntity
8
0
100
AcDbCircle
10
13.75
20
151.34999999999997
30
0
40
2.6000000000000001
210
0
220
0
230
1
0
LWPOLYLINE
5
108
100
AcDbEntity
8
0
100
AcDbPolyline
90
4
70
1
43
0.0
10
26.0010273551175
20
104.26582729403916
10
12.001027355117493
20
104.26582729403916
10
12.001027355117493
20
90.265827294039156
10
26.0010273551175
20
90.265827294039156
0
LWPOLYLINE
5
109
100
AcDbEntity
8
0
100
AcDbPolyline
90
4
70
1
43
0.0
10
37.88665944449869
20
106.54578156575883
10
51.886659444498697
20
106.54578156575883
10
51.886659444498697
20
120.54578156575883
10
37.88665944449869
20
120.54578156575883
0
LWPOLYLINE
5
110
100
AcDbEntity
8
0
100
AcDbPolyline
90
4
70
1
43
0.0
10
66.752193264788531
20
109.73248748523889
10
80.752193264788531
20
109.73248748523889
10
80.752193264788531
20
123.73248748523889
10
66.752193264788531
20
123.73248748523889
0
LWPOLYLINE
5
111
100
AcDbEntity
8
0
100
AcDbPolyline
90
4
70
1
43
0.0
10
101.35749784081057
20
28.885582176792784
10
115.35749784081059
20
28.885582176792784
10
115.35749784081059
20
42.885582176792774
10
101.35749784081057
20
42.885582176792774
0
LWPOLYLINE
5
112
100
AcDbEntity
8
0
100
AcDbPolyline
90
4
70
1
43
0.0
10
244.4599255291769
20
60.753907708520174
10
258.45992552917687
20
60.753907708520174
10
258.45992552917687
20
74.75390770852016
10
244.4599255291769
20
74.75390770852016
0
LWPOLYLINE
5
113
100
AcDbEntity
8
0
100
AcDbPolyline
90
4
70
1
43
0.0
10
124.39170341178053
20
12.588064189998887
10
138.39170341178053
20
12.588064189998887
10
138.39170341178053
20
26.588064189998875
10
124.39170341178053
20
26.588064189998875
0
LWPOLYLINE
5
114
100
AcDbEntity
8
0
100
AcDbPolyline
90
4
70
1
43
0.0
10
221.13916427933407
20
44.428346054669944
10
235.1391642793341
20
44.428346054669944
10
235.1391642793341
20
58.42834605466993
10
221.13916427933407
20
58.42834605466993
0
LWPOLYLINE
5
115
100
AcDbEntity
8
0
100
AcDbPolyline
90
4
70
1
43
0.0
10
94.053663033673473
20
97.557676915566503
10
108.05366303367347
20
97.557676915566503
10
108.05366303367347
20
111.55767691556649
10
94.053663033673473
20
111.55767691556649
0
LWPOLYLINE
5
116
100
AcDbEntity
8
0
100
AcDbPolyline
90
4
70
1
43
0.0
10
173.34000000000003
20
97.558000000000021
10
187.34000000000003
20
97.558000000000021
10
187.34000000000003
20
111.55799999999999
10
173.34000000000003
20
111.55799999999999
0
LWPOLYLINE
5
117
100
AcDbEntity
8
0
100
AcDbPolyline
90
4
70
1
43
0.0
10
221.2966080342932
20
12.595888657684835
10
235.2966080342932
20
12.595888657684835
10
235.2966080342932
20
26.595888657684821
10
221.2966080342932
20
26.595888657684821
0
LWPOLYLINE
5
118
100
AcDbEntity
8
0
100
AcDbPolyline
90
4
70
1
43
0.0
10
12.001027355117493
20
90.265827294039156
10
26.0010273551175
20
90.265827294039156
10
26.0010273551175
20
104.26582729403916
10
12.001027355117493
20
104.26582729403916
0
LWPOLYLINE
5
119
100
AcDbEntity
8
0
100
AcDbPolyline
90
4
70
1
43
0.0
10
281.67483567986608
20
58.432263401723894
10
267.67483567986608
20
58.432263401723894
10
267.67483567986608
20
44.432263401723908
10
281.67483567986608
20
44.432263401723908
0
LWPOLYLINE
5
120
100
AcDbEntity
8
0
100
AcDbPolyline
90
4
70
1
43
0.0
10
265.59044295177165
20
140.47925211158579
10
251.59044295177168
20
140.47925211158579
10
251.59044295177168
20
126.47925211158581
10
265.59044295177165
20
126.47925211158581
0
LWPOLYLINE
5
121
100
AcDbEntity
8
0
100
AcDbPolyline
90
4
70
1
43
0.0
10
235.2966080342932
20
26.595888657684821
10
221.2966080342932
20
26.595888657684821
10
221.2966080342932
20
12.595888657684835
10
235.2966080342932
20
12.595888657684835
0
LWPOLYLINE
5
122
100
AcDbEntity
8
0
100
AcDbPolyline
90
4
70
1
43
0.0
10
292.77167321295082
20
124.44023851077463
10
278.77167321295082
20
124.44023851077463
10
278.77167321295082
20
110.44023851077466
10
292.77167321295082
20
110.44023851077466
0
LWPOLYLINE
5
123
100
AcDbEntity
8
0
100
AcDbPolyline
90
4
70
1
43
0.0
10
258.28213466890855
20
42.53559966116665
10
244.28213466890855
20
42.53559966116665
10
244.28213466890855
20
28.53559966116666
10
258.28213466890855
20
28.53559966116666
0
LWPOLYLINE
5
124
100
AcDbEntity
8
0
100
AcDbPolyline
90
4
70
1
43
0.0
10
265.66815980550126
20
112.02671763768438
10
251.66815980550129
20
112.02671763768438
10
251.66815980550129
20
98.026717637684413
10
265.66815980550126
20
98.026717637684413
0
LWPOLYLINE
5
125
100
AcDbEntity
8
0
100
AcDbPolyline
90
4
70
1
43
0.0
10
292.62273539479401
20
152.53914239964928
10
278.62273539479406
20
152.53914239964928
10
278.62273539479406
20
138.53914239964928
10
292.62273539479401
20
138.53914239964928
0
LWPOLYLINE
5
126
100
AcDbEntity
8
0
100
AcDbPolyline
90
4
70
1
43
0.0
10
322.20518583564569
20
121.35130985670656
10
308.20518583564569
20
121.35130985670656
10
308.20518583564569
20
107.35130985670658
10
322.20518583564569
20
107.35130985670658
0
LWPOLYLINE
5
127
100
AcDbEntity
8
0
100
AcDbPolyline
90
4
70
1
43
0.0
10
348.74179523233136
20
104.89067165182313
10
334.74179523233147
20
104.89067165182313
10
334.74179523233147
20
90.890671651823141
10
348.74179523233136
20
90.890671651823141
0
LWPOLYLINE
5
128
100
AcDbEntity
8
0
100
AcDbPolyline
90
4
70
1
43
0.0
10
322.20518583564569
20
149.4642206476851
10
308.20518583564569
20
149.4642206476851
10
308.20518583564569
20
135.4642206476851
10
322.20518583564569
20
135.4642206476851
0
LWPOLYLINE
5
129
100
AcDbEntity
8
0
100
AcDbPolyline
90
4
70
1
43
0.0
10
348.62057820033795
20
133.05941054460735
10
334.62057820033806
20
133.05941054460735
10
334.62057820033806
20
119.05941054460737
10
348.62057820033795
20
119.05941054460737
0
ENDSEC
0
SECTION
2
OBJECTS
0
DICTIONARY
5
C
100
AcDbDictionary
3
ACAD_GROUP
350
D
3
ACAD_MLINESTYLE
350
17
0
DICTIONARY
5
D
100
AcDbDictionary
0
DICTIONARY
5
1A
330
C
100
AcDbDictionary
0
DICTIONARY
5
17
100
AcDbDictionary
0
ENDSEC
0
EOF
