0
SECTION
2
HEADER
9
$INSUNITS
70
4
9
$ACADVER
1
AC1014
9
$HANDSEED
5
FFFF
0
ENDSEC
0
SECTION
2
TABLES
0
TABLE
2
VPORT
5
8
100
AcDbSymbolTable
0
ENDTAB
0
TABLE
2
LTYPE
5
5
100
AcDbSymbolTable
0
LTYPE
5
14
100
AcDbSymbolTableRecord
100
AcDbLinetypeTableRecord
2
BYBLOCK
70
0
0
LTYPE
5
15
100
AcDbSymbolTableRecord
100
AcDbLinetypeTableRecord
2
BYLAYER
70
0
0
ENDTAB
0
TABLE
2
LAYER
5
2
100
AcDbSymbolTable
70
2
0
LAYER
5
50
100
AcDbSymbolTableRecord
100
AcDbLayerTableRecord
2
0
70
0
6
CONTINUOUS
0
ENDTAB
0
TABLE
2
STYLE
5
3
100
AcDbSymbolTable
70
1
0
STYLE
5
11
100
AcDbSymbolTableRecord
100
AcDbTextStyleTableRecord
2
STANDARD
70
0
0
ENDTAB
0
TABLE
2
VIEW
5
6
100
AcDbSymbolTable
70
0
0
ENDTAB
0
TABLE
2
UCS
5
7
100
AcDbSymbolTable
70
0
0
ENDTAB
0
TABLE
2
APPID
5
9
100
AcDbSymbolTable
70
2
0
APPID
5
12
100
AcDbSymbolTableRecord
100
AcDbRegAppTableRecord
2
ACAD
70
0
0
ENDTAB
0
TABLE
2
DIMSTYLE
5
A
100
AcDbSymbolTable
70
1
0
ENDTAB
0
TABLE
2
BLOCK_RECORD
5
1
100
AcDbSymbolTable
70
1
0
BLOCK_RECORD
5
1F
100
AcDbSymbolTableRecord
100
AcDbBlockTableRecord
2
*MODEL_SPACE
0
BLOCK_RECORD
5
1B
100
AcDbSymbolTableRecord
100
AcDbBlockTableRecord
2
*PAPER_SPACE
0
ENDTAB
0
ENDSEC
0
SECTION
2
BLOCKS
0
BLOCK
5
20
100
AcDbEntity
100
AcDbBlockBegin
2
*MODEL_SPACE
0
ENDBLK
5
21
100
AcDbEntity
100
AcDbBlockEnd
0
BLOCK
5
1C
100
AcDbEntity
100
AcDbBlockBegin
2
*PAPER_SPACE
0
ENDBLK
5
1D
100
AcDbEntity
100
AcDbBlockEnd
0
ENDSEC
0
SECTION
2
ENTITIES
0
LWPOLYLINE
5
100
100
AcDbEntity
8
0
100
AcDbPolyline
90
8
70
1
43
0.0
10
360.68000000000006
20
1.9999999999999929
10
360.68000000000012
20
163.10000000000005
42
0.4142135623730846
10
358.67999999999995
20
165.09999999999997
10
1.9999999999999576
20
165.10000000000005
42
0.4142135623730927
10
-1.3322676295501878e-14
20
163.10000000000005
10
2.7755575615628914e-16
20
1.9999999999999931
42
0.41421356237309581
10
2.0000000000000284
20
2.7755575615628914e-16
10
358.68000000000001
20
-4.6074255521943996e-14
42
0.41421356237305496
0
CIRCLE
5
101
100
AcDbEntity
8
0
100
AcDbCircle
10
13.75
20
151.34999999999997
30
0
40
2.6000000000000001
210
0
220
0
230
1
0
CIRCLE
5
102
100
AcDbEntity
8
0
100
AcDbCircle
10
13.75
20
13.75
30
0
40
2.6000000000000001
210
0
220
0
230
1
0
CIRCLE
5
103
100
AcDbEntity
8
0
100
AcDbCircle
10
155.34
20
151.34999999999999
30
0
40
2.599999999999993
210
0
220
0
230
1
0
CIRCLE
5
104
100
AcDbEntity
8
0
100
AcDbCircle
10
205.34000000000009
20
151.34999999999999
30
0
40
2.6000000000000005
210
0
220
0
230
1
0
CIRCLE
5
105
100
AcDbEntity
8
0
100
AcDbCircle
10
180.34000000000003
20
13.75
30
0
40
2.6000000000000103
210
0
220
0
230
1
0
CIRCLE
5
106
100
AcDbEntity
8
0
100
AcDbCircle
10
346.93000000000006
20
13.75
30
0
40
2.6000000000000063
210
0
220
0
230
1
0
CIRCLE
5
107
100
AcDbEntity
8
0
100
AcDbCircle
10
346.93000000000006
20
151.35000000000005
30
0
40
2.600000000000013
210
0
220
0
230
1
0
SPLINE
5
108
100
AcDbEntity
8
0
100
AcDbSpline
70
0
71
3
72
17
73
13
74
0
42
0.000000001
43
0.0000000001
44
0.0000000001
40
0
40
0
40
0
40
0
40
1
40
1
40
1
40
2
40
2
40
2
40
3
40
3
40
3
40
4
40
4
40
4
40
4
10
269.62307822427351
20
105.02576212820868
30
0
10
269.62307822427351
20
98.950629881927483
30
0
10
264.69821047330504
20
94.025762130958952
30
0
10
258.62307822702411
20
94.025762130958952
30
0
10
252.54794598074261
20
94.025762130958952
30
0
10
247.62307822977337
20
98.950629881927483
30
0
10
247.62307822977337
20
105.02576212820868
30
0
10
247.62307822977337
20
111.10089437448985
30
0
10
252.54794598074261
20
116.02576212545875
30
0
10
258.62307822702411
20
116.02576212545875
30
0
10
264.69821047330504
20
116.02576212545875
30
0
10
269.62307822427351
20
111.10089437448985
30
0
10
269.62307822427351
20
105.02576212820868
30
0
0
SPLINE
5
109
100
AcDbEntity
8
0
100
AcDbSpline
70
0
71
3
72
17
73
13
74
0
42
0.000000001
43
0.0000000001
44
0.0000000001
40
0
40
0
40
0
40
0
40
1
40
1
40
1
40
2
40
2
40
2
40
3
40
3
40
3
40
4
40
4
40
4
40
4
10
84.81578875682186
20
116.73131768083758
30
0
10
84.81578875682186
20
110.65618543455641
30
0
10
79.890921005853286
20
105.73131768358785
30
0
10
73.815788759572101
20
105.73131768358785
30
0
10
67.740656513290915
20
105.73131768358785
30
0
10
62.815788762322036
20
110.65618543455641
30
0
10
62.815788762322036
20
116.73131768083758
30
0
10
62.815788762322036
20
122.80644992711878
30
0
10
67.740656513290915
20
127.73131767808765
30
0
10
73.815788759572101
20
127.73131767808765
30
0
10
79.890921005853286
20
127.73131767808765
30
0
10
84.81578875682186
20
122.80644992711878
30
0
10
84.81578875682186
20
116.73131768083758
30
0
0
SPLINE
5
110
100
AcDbEntity
8
0
100
AcDbSpline
70
0
71
3
72
17
73
13
74
0
42
0.000000001
43
0.0000000001
44
0.0000000001
40
0
40
0
40
0
40
0
40
1
40
1
40
1
40
2
40
2
40
2
40
3
40
3
40
3
40
4
40
4
40
4
40
4
10
352.67988571524626
20
97.890003131557648
30
0
10
352.67988571524626
20
91.814870885276463
30
0
10
347.75501796427773
20
86.890003134307889
30
0
10
341.67988571799697
20
86.890003134307889
30
0
10
335.6047534717153
20
86.890003134307889
30
0
10
330.67988572074626
20
91.814870885276463
30
0
10
330.67988572074626
20
97.890003131557648
30
0
10
330.67988572074626
20
103.96513537783883
30
0
10
335.6047534717153
20
108.89000312880771
30
0
10
341.67988571799697
20
108.89000312880771
30
0
10
347.75501796427773
20
108.89000312880771
30
0
10
352.67988571524626
20
103.96513537783883
30
0
10
352.67988571524626
20
97.890003131557648
30
0
0
SPLINE
5
111
100
AcDbEntity
8
0
100
AcDbSpline
70
0
71
3
72
17
73
13
74
0
42
0.000000001
43
0.0000000001
44
0.0000000001
40
0
40
0
40
0
40
0
40
1
40
1
40
1
40
2
40
2
40
2
40
3
40
3
40
3
40
4
40
4
40
4
40
4
10
119.34826136164747
20
35.885582176793122
30
0
10
119.34826136164747
20
29.810449930511638
30
0
10
114.42339361067891
20
24.885582179543047
30
0
10
108.3482613643977
20
24.885582179543047
30
0
10
102.27312911811649
20
24.885582179543047
30
0
10
97.348261367147657
20
29.810449930511638
30
0
10
97.348261367147657
20
35.885582176793122
30
0
10
97.348261367147657
20
41.96071442307403
30
0
10
102.27312911811649
20
46.885582174042533
30
0
10
108.3482613643977
20
46.885582174042533
30
0
10
114.42339361067891
20
46.885582174042533
30
0
10
119.34826136164747
20
41.96071442307403
30
0
10
119.34826136164747
20
35.885582176793122
30
0
0
SPLINE
5
112
100
AcDbEntity
8
0
100
AcDbSpline
70
0
71
3
72
17
73
13
74
0
42
0.000000001
43
0.0000000001
44
0.0000000001
40
0
40
0
40
0
40
0
40
1
40
1
40
1
40
2
40
2
40
2
40
3
40
3
40
3
40
4
40
4
40
4
40
4
10
326.12217836664354
20
142.46422064780023
30
0
10
326.12217836664354
20
136.38908840151905
30
0
10
321.19731061567506
20
131.46422065055049
30
0
10
315.12217836939419
20
131.46422065055049
30
0
10
309.04704612311269
20
131.46422065055049
30
0
10
304.12217837214348
20
136.38908840151905
30
0
10
304.12217837214348
20
142.46422064780023
30
0
10
304.12217837214348
20
148.53935289408142
30
0
10
309.04704612311269
20
153.46422064505029
30
0
10
315.12217836939419
20
153.46422064505029
30
0
10
321.19731061567506
20
153.46422064505029
30
0
10
326.12217836664354
20
148.53935289408142
30
0
10
326.12217836664354
20
142.46422064780023
30
0
0
SPLINE
5
113
100
AcDbEntity
8
0
100
AcDbSpline
70
0
71
3
72
17
73
13
74
0
42
0.000000001
43
0.0000000001
44
0.0000000001
40
0
40
0
40
0
40
0
40
1
40
1
40
1
40
2
40
2
40
2
40
3
40
3
40
3
40
4
40
4
40
4
40
4
10
285.70676366626236
20
51.432647900605133
30
0
10
285.70676366626236
20
45.35751565432362
30
0
10
280.78189591529372
20
40.432647903355118
30
0
10
274.70676366901222
20
40.432647903355118
30
0
10
268.63163142273146
20
40.432647903355118
30
0
10
263.70676367176281
20
45.35751565432362
30
0
10
263.70676367176281
20
51.432647900605133
30
0
10
263.70676367176281
20
57.507780146886027
30
0
10
268.63163142273146
20
62.432647897854622
30
0
10
274.70676366901222
20
62.432647897854622
30
0
10
280.78189591529372
20
62.432647897854622
30
0
10
285.70676366626236
20
57.507780146886027
30
0
10
285.70676366626236
20
51.432647900605133
30
0
0
SPLINE
5
114
100
AcDbEntity
8
0
100
AcDbSpline
70
0
71
3
72
17
73
13
74
0
42
0.000000001
43
0.0000000001
44
0.0000000001
40
0
40
0
40
0
40
0
40
1
40
1
40
1
40
2
40
2
40
2
40
3
40
3
40
3
40
4
40
4
40
4
40
4
10
112.03930205205029
20
104.55799999999994
30
0
10
112.03930205205029
20
98.482867753718736
30
0
10
107.11443430108169
20
93.558000002750177
30
0
10
101.03930205480052
20
93.558000002750177
30
0
10
94.96416980851933
20
93.558000002750177
30
0
10
90.039302057550429
20
98.482867753718736
30
0
10
90.039302057550429
20
104.55799999999994
30
0
10
90.039302057550429
20
110.63313224628112
30
0
10
94.96416980851933
20
115.55799999724998
30
0
10
101.03930205480052
20
115.55799999724998
30
0
10
107.11443430108169
20
115.55799999724998
30
0
10
112.03930205205029
20
110.63313224628112
30
0
10
112.03930205205029
20
104.55799999999994
30
0
0
SPLINE
5
115
100
AcDbEntity
8
0
100
AcDbSpline
70
0
71
3
72
17
73
13
74
0
42
0.000000001
43
0.0000000001
44
0.0000000001
40
0
40
0
40
0
40
0
40
1
40
1
40
1
40
2
40
2
40
2
40
3
40
3
40
3
40
4
40
4
40
4
40
4
10
262.35386852343021
20
35.532804399103526
30
0
10
262.35386852343021
20
29.457672152822045
30
0
10
257.42900077246168
20
24.532804401853543
30
0
10
251.35386852618012
20
24.532804401853543
30
0
10
245.27873627989931
20
24.532804401853543
30
0
10
240.35386852893072
20
29.457672152822045
30
0
10
240.35386852893072
20
35.532804399103526
30
0
10
240.35386852893072
20
41.60793664538442
30
0
10
245.27873627989931
20
46.532804396352923
30
0
10
251.35386852618012
20
46.532804396352923
30
0
10
257.42900077246168
20
46.532804396352923
30
0
10
262.35386852343021
20
41.60793664538442
30
0
10
262.35386852343021
20
35.532804399103526
30
0
0
SPLINE
5
116
100
AcDbEntity
8
0
100
AcDbSpline
70
0
71
3
72
17
73
13
74
0
42
0.000000001
43
0.0000000001
44
0.0000000001
40
0
40
0
40
0
40
0
40
1
40
1
40
1
40
2
40
2
40
2
40
3
40
3
40
3
40
4
40
4
40
4
40
4
10
142.4924710585214
20
19.593211288846746
30
0
10
142.4924710585214
20
13.518079042565923
30
0
10
137.56760330755282
20
8.5932112915973491
30
0
10
131.4924710612716
20
8.5932112915973491
30
0
10
125.41733881499039
20
8.5932112915973491
30
0
10
120.4924710640216
20
13.518079042565923
30
0
10
120.4924710640216
20
19.593211288846746
30
0
10
120.4924710640216
20
25.668343535128244
30
0
10
125.41733881499039
20
30.593211286097421
30
0
10
131.4924710612716
20
30.593211286097421
30
0
10
137.56760330755282
20
30.593211286097421
30
0
10
142.4924710585214
20
25.668343535128244
30
0
10
142.4924710585214
20
19.593211288846746
30
0
0
SPLINE
5
117
100
AcDbEntity
8
0
100
AcDbSpline
70
0
71
3
72
17
73
13
74
0
42
0.000000001
43
0.0000000001
44
0.0000000001
40
0
40
0
40
0
40
0
40
1
40
1
40
1
40
2
40
2
40
2
40
3
40
3
40
3
40
4
40
4
40
4
40
4
10
239.20965882655628
20
51.432647900604529
30
0
10
239.20965882655628
20
45.357515654323031
30
0
10
234.28479107558769
20
40.432647903355118
30
0
10
228.20965882930679
20
40.432647903355118
30
0
10
222.1345265830254
20
40.432647903355118
30
0
10
217.20965883205608
20
45.357515654323031
30
0
10
217.20965883205608
20
51.432647900604529
30
0
10
217.20965883205608
20
57.507780146886027
30
0
10
222.1345265830254
20
62.432647897854622
30
0
10
228.20965882930679
20
62.432647897854622
30
0
10
234.28479107558769
20
62.432647897854622
30
0
10
239.20965882655628
20
57.507780146886027
30
0
10
239.20965882655628
20
51.432647900604529
30
0
0
SPLINE
5
118
100
AcDbEntity
8
0
100
AcDbSpline
70
0
71
3
72
17
73
13
74
0
42
0.000000001
43
0.0000000001
44
0.0000000001
40
0
40
0
40
0
40
0
40
1
40
1
40
1
40
2
40
2
40
2
40
3
40
3
40
3
40
4
40
4
40
4
40
4
10
30.000374060040951
20
97.180183100436324
30
0
10
30.000374060040951
20
91.105050854155138
30
0
10
25.075506309072068
20
86.180183103186593
30
0
10
19.00037406279089
20
86.180183103186593
30
0
10
12.925241816509699
20
86.180183103186593
30
0
10
8.0003740655408198
20
91.105050854155138
30
0
10
8.0003740655408198
20
97.180183100436324
30
0
10
8.0003740655408198
20
103.25531534671751
30
0
10
12.925241816509699
20
108.1801830976864
30
0
10
19.00037406279089
20
108.1801830976864
30
0
10
25.075506309072068
20
108.1801830976864
30
0
10
30.000374060040951
20
103.25531534671751
30
0
10
30.000374060040951
20
97.180183100436324
30
0
0
SPLINE
5
119
100
AcDbEntity
8
0
100
AcDbSpline
70
0
71
3
72
17
73
13
74
0
42
0.000000001
43
0.0000000001
44
0.0000000001
40
0
40
0
40
0
40
0
40
1
40
1
40
1
40
2
40
2
40
2
40
3
40
3
40
3
40
4
40
4
40
4
40
4
10
55.997322410348865
20
113.64575430132726
30
0
10
55.997322410348865
20
107.57062205504607
30
0
10
51.072454659380298
20
102.64575430407751
30
0
10
44.997322413099113
20
102.64575430407751
30
0
10
38.922190166817934
20
102.64575430407751
30
0
10
33.997322415849055
20
107.57062205504607
30
0
10
33.997322415849055
20
113.64575430132726
30
0
10
33.997322415849055
20
119.72088654760844
30
0
10
38.922190166817934
20
124.64575429857733
30
0
10
44.997322413099113
20
124.64575429857733
30
0
10
51.072454659380298
20
124.64575429857733
30
0
10
55.997322410348865
20
119.72088654760844
30
0
10
55.997322410348865
20
113.64575430132726
30
0
0
SPLINE
5
120
100
AcDbEntity
8
0
100
AcDbSpline
70
0
71
3
72
17
73
13
74
0
42
0.000000001
43
0.0000000001
44
0.0000000001
40
0
40
0
40
0
40
0
40
1
40
1
40
1
40
2
40
2
40
2
40
3
40
3
40
3
40
4
40
4
40
4
40
4
10
239.20965882655628
20
19.593211288848025
30
0
10
239.20965882655628
20
13.518079042566491
30
0
10
234.28479107558769
20
8.5932112915979175
30
0
10
228.20965882930679
20
8.5932112915979175
30
0
10
222.1345265830254
20
8.5932112915979175
30
0
10
217.20965883205608
20
13.518079042566491
30
0
10
217.20965883205608
20
19.593211288848025
30
0
10
217.20965883205608
20
25.668343535128919
30
0
10
222.1345265830254
20
30.593211286097421
30
0
10
228.20965882930679
20
30.593211286097421
30
0
10
234.28479107558769
20
30.593211286097421
30
0
10
239.20965882655628
20
25.668343535128919
30
0
10
239.20965882655628
20
19.593211288848025
30
0
0
SPLINE
5
121
100
AcDbEntity
8
0
100
AcDbSpline
70
0
71
3
72
17
73
13
74
0
42
0.000000001
43
0.0000000001
44
0.0000000001
40
0
40
0
40
0
40
0
40
1
40
1
40
1
40
2
40
2
40
2
40
3
40
3
40
3
40
4
40
4
40
4
40
4
10
296.70676366351239
20
145.53914239977018
30
0
10
296.70676366351239
20
139.464010153489
30
0
10
291.78189591254386
20
134.53914240252044
30
0
10
285.70676366626299
20
134.53914240252044
30
0
10
279.63163141998155
20
134.53914240252044
30
0
10
274.70676366901222
20
139.464010153489
30
0
10
274.70676366901222
20
145.53914239977018
30
0
10
274.70676366901222
20
151.61427464605137
30
0
10
279.63163141998155
20
156.53914239702027
30
0
10
285.70676366626299
20
156.53914239702027
30
0
10
291.78189591254386
20
156.53914239702027
30
0
10
296.70676366351239
20
151.61427464605137
30
0
10
296.70676366351239
20
145.53914239977018
30
0
0
SPLINE
5
122
100
AcDbEntity
8
0
100
AcDbSpline
70
0
71
3
72
17
73
13
74
0
42
0.000000001
43
0.0000000001
44
0.0000000001
40
0
40
0
40
0
40
0
40
1
40
1
40
1
40
2
40
2
40
2
40
3
40
3
40
3
40
4
40
4
40
4
40
4
10
269.62307822427283
20
133.48080906945168
30
0
10
269.62307822427283
20
127.40567682317051
30
0
10
264.69821047330424
20
122.48080907220194
30
0
10
258.6230782270228
20
122.48080907220194
30
0
10
252.54794598074193
20
122.48080907220194
30
0
10
247.62307822977337
20
127.40567682317051
30
0
10
247.62307822977337
20
133.48080906945168
30
0
10
247.62307822977337
20
139.55594131573287
30
0
10
252.54794598074193
20
144.48080906670177
30
0
10
258.6230782270228
20
144.48080906670177
30
0
10
264.69821047330424
20
144.48080906670177
30
0
10
269.62307822427283
20
139.55594131573287
30
0
10
269.62307822427283
20
133.48080906945168
30
0
0
SPLINE
5
123
100
AcDbEntity
8
0
100
AcDbSpline
70
0
71
3
72
17
73
13
74
0
42
0.000000001
43
0.0000000001
44
0.0000000001
40
0
40
0
40
0
40
0
40
1
40
1
40
1
40
2
40
2
40
2
40
3
40
3
40
3
40
4
40
4
40
4
40
4
10
296.70676366351239
20
117.43687323621677
30
0
10
296.70676366351239
20
111.36174098993556
30
0
10
291.78189591254386
20
106.43687323896701
30
0
10
285.70676366626299
20
106.43687323896701
30
0
10
279.63163141998155
20
106.43687323896701
30
0
10
274.70676366901222
20
111.36174098993556
30
0
10
274.70676366901222
20
117.43687323621677
30
0
10
274.70676366901222
20
123.51200548249794
30
0
10
279.63163141998155
20
128.43687323346683
30
0
10
285.70676366626299
20
128.43687323346683
30
0
10
291.78189591254386
20
128.43687323346683
30
0
10
296.70676366351239
20
123.51200548249794
30
0
10
296.70676366351239
20
117.43687323621677
30
0
0
SPLINE
5
124
100
AcDbEntity
8
0
100
AcDbSpline
70
0
71
3
72
17
73
13
74
0
42
0.000000001
43
0.0000000001
44
0.0000000001
40
0
40
0
40
0
40
0
40
1
40
1
40
1
40
2
40
2
40
2
40
3
40
3
40
3
40
4
40
4
40
4
40
4
10
352.67988571524626
20
126.05686540933533
30
0
10
352.67988571524626
20
119.98173316305413
30
0
10
347.75501796427773
20
115.0568654120856
30
0
10
341.67988571799697
20
115.0568654120856
30
0
10
335.6047534717153
20
115.0568654120856
30
0
10
330.67988572074626
20
119.98173316305413
30
0
10
330.67988572074626
20
126.05686540933533
30
0
10
330.67988572074626
20
132.13199765561652
30
0
10
335.6047534717153
20
137.05686540658539
30
0
10
341.67988571799697
20
137.05686540658539
30
0
10
347.75501796427773
20
137.05686540658539
30
0
10
352.67988571524626
20
132.13199765561652
30
0
10
352.67988571524626
20
126.05686540933533
30
0
0
SPLINE
5
125
100
AcDbEntity
8
0
100
AcDbSpline
70
0
71
3
72
17
73
13
74
0
42
0.000000001
43
0.0000000001
44
0.0000000001
40
0
40
0
40
0
40
0
40
1
40
1
40
1
40
2
40
2
40
2
40
3
40
3
40
3
40
4
40
4
40
4
40
4
10
326.12217836664354
20
114.35130985670642
30
0
10
326.12217836664354
20
108.27617761042524
30
0
10
321.19731061567506
20
103.35130985945668
30
0
10
315.12217836939419
20
103.35130985945668
30
0
10
309.04704612311269
20
103.35130985945668
30
0
10
304.12217837214348
20
108.27617761042524
30
0
10
304.12217837214348
20
114.35130985670642
30
0
10
304.12217837214348
20
120.42644210298761
30
0
10
309.04704612311269
20
125.35130985395648
30
0
10
315.12217836939419
20
125.35130985395648
30
0
10
321.19731061567506
20
125.35130985395648
30
0
10
326.12217836664354
20
120.42644210298761
30
0
10
326.12217836664354
20
114.35130985670642
30
0
0
SPLINE
5
126
100
AcDbEntity
8
0
100
AcDbSpline
70
0
71
3
72
17
73
13
74
0
42
0.000000001
43
0.0000000001
44
0.0000000001
40
0
40
0
40
0
40
0
40
1
40
1
40
1
40
2
40
2
40
2
40
3
40
3
40
3
40
4
40
4
40
4
40
4
10
262.35386852343089
20
67.760503921561991
30
0
10
262.35386852343089
20
61.685371675281132
30
0
10
257.42900077246225
20
56.760503924312538
30
0
10
251.35386852618137
20
56.760503924312538
30
0
10
245.27873627989987
20
56.760503924312538
30
0
10
240.35386852893072
20
61.685371675281132
30
0
10
240.35386852893072
20
67.760503921561991
30
0
10
240.35386852893072
20
73.835636167843504
30
0
10
245.27873627989987
20
78.760503918812375
30
0
10
251.35386852618137
20
78.760503918812375
30
0
10
257.42900077246225
20
78.760503918812375
30
0
10
262.35386852343089
20
73.835636167843504
30
0
10
262.35386852343089
20
67.760503921561991
30
0
0
CIRCLE
5
127
100
AcDbEntity
8
0
100
AcDbCircle
10
180.33999999999997
20
104.55799999999999
30
0
40
11
210
0
220
0
230
1
0
ENDSEC
0
SECTION
2
OBJECTS
0
DICTIONARY
5
C
100
AcDbDictionary
3
ACAD_GROUP
350
D
3
ACAD_MLINESTYLE
350
17
0
DICTIONARY
5
D
100
AcDbDictionary
0
DICTIONARY
5
1A
330
C
100
AcDbDictionary
0
DICTIONARY
5
17
100
AcDbDictionary
0
ENDSEC
0
EOF
